<?xml version="1.0" encoding="UTF-8"?>
<svg width="24px" height="24px" viewBox="0 0 24 24" version="1.1" xmlns="http://www.w3.org/2000/svg" xmlns:xlink="http://www.w3.org/1999/xlink">
    <!-- Generator: Sketch 58 (84663) - https://sketch.com -->
    <title>Icons / Utility / access</title>
    <desc>Created with Sketch.</desc>
    <g id="Icons-/-Utility-/-access" stroke="none" stroke-width="1" fill="none" fill-rule="evenodd">
        <polygon id="Path" points="0 0 24 0 24 24 0 24"></polygon>
        <path d="M17.4859463,6.1681744 C20.7068209,6.1681744 23.3177719,8.77912539 23.3177719,12 C23.3177719,15.2208746 20.7068209,17.8318256 17.4859463,17.8318256 C14.7814776,17.8318256 12.5070319,15.99099 11.8472249,13.4939344 L7.66477189,13.4931744 L6.8509991,16.9039455 L2.5787522,16.9039455 L1.76277189,13.4931744 L0.817771892,13.4932918 C0.265487143,13.4932918 -0.182228108,13.0455766 -0.182228108,12.4932918 L-0.182228108,11.5067082 C-0.182228108,10.9544234 0.265487143,10.5067082 0.817771892,10.5067082 L11.8469904,10.5069534 C12.5064928,8.00944635 14.7811571,6.1681744 17.4859463,6.1681744 Z M17.4859463,9.34917018 C16.0219124,9.34917018 14.8351165,10.5359661 14.8351165,12 C14.8351165,13.4640339 16.0219124,14.6508298 17.4859463,14.6508298 C18.9499802,14.6508298 20.1367761,13.4640339 20.1367761,12 C20.1367761,10.5359661 18.9499802,9.34917018 17.4859463,9.34917018 Z" id="Combined-Shape" fill="#000000" fill-rule="nonzero" transform="translate(11.567772, 12.000000) rotate(-45.000000) translate(-11.567772, -12.000000) "></path>
    </g>
</svg>