<?xml version="1.0" encoding="UTF-8"?>
<svg width="24px" height="24px" viewBox="0 0 24 24" version="1.1" xmlns="http://www.w3.org/2000/svg" xmlns:xlink="http://www.w3.org/1999/xlink">
    <!-- Generator: Sketch 57 (83077) - https://sketch.com -->
    <title>Icons / Utility / article</title>
    <desc>Created with Sketch.</desc>
    <g id="Icons-/-Utility-/-article" stroke="none" stroke-width="1" fill="none" fill-rule="evenodd">
        <polygon id="Path" points="0 0 24 0 24 24 0 24"></polygon>
        <path d="M19,2 C20.1045695,2 21,2.8954305 21,4 L21,20 C21,21.1045695 20.1045695,22 19,22 L5,22 C3.8954305,22 3,21.1045695 3,20 L3,4 C3,2.8954305 3.8954305,2 5,2 L19,2 Z M19,4 L5,4 L5,20 L19,20 L19,4 Z M16.125,16.5 C16.6082492,16.5 17,16.8917508 17,17.375 C17,17.8582492 16.6082492,18.25 16.125,18.25 L7.875,18.25 C7.39175084,18.25 7,17.8582492 7,17.375 C7,16.8917508 7.39175084,16.5 7.875,16.5 L16.125,16.5 Z M11,9.33 L11,14.83 L7,14.83 L7,9.33 L11,9.33 Z M16.125,12.9166667 C16.6082492,12.9166667 17,13.3084175 17,13.7916667 C17,14.2749158 16.6082492,14.6666667 16.125,14.6666667 L13.875,14.6666667 C13.3917508,14.6666667 13,14.2749158 13,13.7916667 C13,13.3084175 13.3917508,12.9166667 13.875,12.9166667 L16.125,12.9166667 Z M16.125,9.33333333 C16.6082492,9.33333333 17,9.72508418 17,10.2083333 C17,10.6915825 16.6082492,11.0833333 16.125,11.0833333 L13.875,11.0833333 C13.3917508,11.0833333 13,10.6915825 13,10.2083333 C13,9.72508418 13.3917508,9.33333333 13.875,9.33333333 L16.125,9.33333333 Z M16.125,5.75 C16.6082492,5.75 17,6.14175084 17,6.625 C17,7.10824916 16.6082492,7.5 16.125,7.5 L7.875,7.5 C7.39175084,7.5 7,7.10824916 7,6.625 C7,6.14175084 7.39175084,5.75 7.875,5.75 L16.125,5.75 Z" id="Icon-Color" fill="#000000" fill-rule="nonzero"></path>
    </g>
</svg>