<?xml version="1.0" encoding="UTF-8"?>
<svg width="24px" height="24px" viewBox="0 0 24 24" version="1.1" xmlns="http://www.w3.org/2000/svg" xmlns:xlink="http://www.w3.org/1999/xlink">
    <!-- Generator: Sketch 57 (83077) - https://sketch.com -->
    <title>Icons / Utility / articles</title>
    <desc>Created with Sketch.</desc>
    <g id="Icons-/-Utility-/-articles" stroke="none" stroke-width="1" fill="none" fill-rule="evenodd">
        <polygon id="Path" points="0 0 24 0 24 24 0 24"></polygon>
        <path d="M17,4 C18.1045695,4 19,4.8954305 19,6 L19,22 C19,23.1045695 18.1045695,24 17,24 L3,24 C1.8954305,24 1,23.1045695 1,22 L1,6 C1,4.8954305 1.8954305,4 3,4 L17,4 Z M17,6 L3,6 L3,22 L17,22 L17,6 Z M14.125,18.5 C14.6082492,18.5 15,18.8917508 15,19.375 C15,19.8582492 14.6082492,20.25 14.125,20.25 L5.875,20.25 C5.39175084,20.25 5,19.8582492 5,19.375 C5,18.8917508 5.39175084,18.5 5.875,18.5 L14.125,18.5 Z M21,0 C22.1045695,-2.02906125e-16 23,0.8954305 23,2 L23,18 C23,19.1045695 22.1045695,20 21,20 L21,2 L5,2 C5,0.8954305 5.8954305,2.02906125e-16 7,0 L21,0 Z M9,11.33 L9,16.83 L5,16.83 L5,11.33 L9,11.33 Z M14.125,14.9166667 C14.6082492,14.9166667 15,15.3084175 15,15.7916667 C15,16.2749158 14.6082492,16.6666667 14.125,16.6666667 L11.875,16.6666667 C11.3917508,16.6666667 11,16.2749158 11,15.7916667 C11,15.3084175 11.3917508,14.9166667 11.875,14.9166667 L14.125,14.9166667 Z M14.125,11.3333333 C14.6082492,11.3333333 15,11.7250842 15,12.2083333 C15,12.6915825 14.6082492,13.0833333 14.125,13.0833333 L11.875,13.0833333 C11.3917508,13.0833333 11,12.6915825 11,12.2083333 C11,11.7250842 11.3917508,11.3333333 11.875,11.3333333 L14.125,11.3333333 Z M14.125,7.75 C14.6082492,7.75 15,8.14175084 15,8.625 C15,9.10824916 14.6082492,9.5 14.125,9.5 L5.875,9.5 C5.39175084,9.5 5,9.10824916 5,8.625 C5,8.14175084 5.39175084,7.75 5.875,7.75 L14.125,7.75 Z" id="Icon-Color" fill="#000000" fill-rule="nonzero"></path>
    </g>
</svg>