<?xml version="1.0" encoding="UTF-8"?>
<svg width="24px" height="24px" viewBox="0 0 24 24" version="1.1" xmlns="http://www.w3.org/2000/svg" xmlns:xlink="http://www.w3.org/1999/xlink">
    <!-- Generator: Sketch 57 (83077) - https://sketch.com -->
    <title>Icons / Utility / attach</title>
    <desc>Created with Sketch.</desc>
    <g id="Icons-/-Utility-/-attach" stroke="none" stroke-width="1" fill="none" fill-rule="evenodd">
        <polygon id="Path" points="0 0 24 0 24 24 0 24"></polygon>
        <path d="M9,6 L9,16.5 C9,18.4329966 10.5670034,20 12.5,20 C14.3685634,20 15.8951264,18.5357224 15.9948211,16.6920352 L16,16.5 L16,9 C16,8.44771525 16.4477153,8 17,8 C17.5128358,8 17.9355072,8.38604019 17.9932723,8.88337887 L18,9 L18,16.5 C18,19.5375661 15.5375661,22 12.5,22 C9.46243388,22 7,19.5375661 7,16.5 L7,6 L9,6 Z M13,6 L15,6 L15,15 L15,15.5 C15,16.8807119 13.8807119,18 12.5,18 C11.1192881,18 10,16.8807119 10,15.5 L10,15 L10,15 L10,7 C10,6.44771525 10.4477153,6 11,6 C11.5128358,6 11.9355072,6.38604019 11.9932723,6.88337887 L12,7 L12,15 L12,15 L12,15.5 C12,15.7761424 12.2238576,16 12.5,16 C12.7454599,16 12.9496084,15.8231248 12.9919443,15.5898756 L13,15.5 L13,15 L13,6 Z M11,2 C13.1421954,2 14.8910789,3.68396847 14.9951047,5.80035966 L15,6 L13,6 L12.9945143,5.85073766 C12.9181651,4.81587779 12.0543618,4 11,4 C9.9456382,4 9.08183488,4.81587779 9.00548574,5.85073766 L9,6 L7,6 C7,3.790861 8.790861,2 11,2 Z" id="Icon-color" fill="#000000" fill-rule="nonzero"></path>
    </g>
</svg>