<?xml version="1.0" encoding="UTF-8"?>
<svg width="24px" height="24px" viewBox="0 0 24 24" version="1.1" xmlns="http://www.w3.org/2000/svg" xmlns:xlink="http://www.w3.org/1999/xlink">
    <!-- Generator: Sketch 57 (83077) - https://sketch.com -->
    <title>Icons / Utility / build</title>
    <desc>Created with Sketch.</desc>
    <g id="Icons-/-Utility-/-build" stroke="none" stroke-width="1" fill="none" fill-rule="evenodd">
        <polygon id="Path" points="0 0 24 0 24 24 0 24"></polygon>
        <path d="M12.4457021,3.78064865 C10.9995748,2.33910438 9.00394812,1.77397272 7.12612194,2.08107012 C6.72320069,2.14696337 6.42109541,2.4409057 6.33232117,2.7928009 C6.24354693,3.1446961 6.2693634,3.44581295 6.60354902,3.77893947 C7.10424001,4.27804368 7.85527649,5.02669999 8.85665846,6.0249084 C9.22404088,6.39112652 9.22404088,6.98270963 8.85665846,7.34892775 L7.3588686,8.84197084 C6.99148618,9.21757917 6.39802227,9.21757917 6.03063986,8.84197084 C5.03221667,7.84671184 4.28339927,7.10026758 3.78418768,6.60263808 C3.44981458,6.26932467 2.96509007,6.26287863 2.70205688,6.37686157 C2.4390237,6.49084451 2.14300216,6.71244615 2.07372592,7.15562102 C1.7829451,9.01580778 2.35184728,10.9779857 3.78866509,12.4102499 C5.54079663,14.1568286 8.1030535,14.6169488 10.2790878,13.8000007 L17.7774572,21.2746064 C18.7477236,22.2417979 20.3114539,22.2417979 21.2723002,21.2746064 C22.2425666,20.307415 22.2425666,18.7486404 21.2723002,17.7908392 L13.8116111,10.3444041 C14.6782568,8.14709544 14.2260938,5.55539799 12.4457021,3.78064865 Z" id="Icon-Color" fill="#000000" fill-rule="nonzero"></path>
    </g>
</svg>