<?xml version="1.0" encoding="UTF-8"?>
<svg width="24px" height="24px" viewBox="0 0 24 24" version="1.1" xmlns="http://www.w3.org/2000/svg" xmlns:xlink="http://www.w3.org/1999/xlink">
    <!-- Generator: Sketch 57 (83077) - https://sketch.com -->
    <title>Icons / Utility / calendar</title>
    <desc>Created with Sketch.</desc>
    <g id="Icons-/-Utility-/-calendar" stroke="none" stroke-width="1" fill="none" fill-rule="evenodd">
        <polygon id="Path" points="0 0 24 0 24 24 0 24"></polygon>
        <path d="M16,12 L13,12 C12.45,12 12,12.45 12,13 L12,16 C12,16.55 12.45,17 13,17 L16,17 C16.55,17 17,16.55 17,16 L17,13 C17,12.45 16.55,12 16,12 Z M16,2 L16,3 L8,3 L8,2 C8,1.45 7.55,1 7,1 C6.45,1 6,1.45 6,2 L6,3 L5,3 C3.89,3 3.01,3.9 3.01,5 L3,19 C3,20.1 3.89,21 5,21 L19,21 C20.1,21 21,20.1 21,19 L21,5 C21,3.9 20.1,3 19,3 L18,3 L18,2 C18,1.45 17.55,1 17,1 C16.45,1 16,1.45 16,2 Z M18,19 L6,19 C5.45,19 5,18.55 5,18 L5,8 L19,8 L19,18 C19,18.55 18.55,19 18,19 Z" id="Icon-Color" fill="#000000" fill-rule="nonzero"></path>
    </g>
</svg>