<?xml version="1.0" encoding="UTF-8"?>
<svg width="24px" height="24px" viewBox="0 0 24 24" version="1.1" xmlns="http://www.w3.org/2000/svg" xmlns:xlink="http://www.w3.org/1999/xlink">
    <!-- Generator: Sketch 57 (83077) - https://sketch.com -->
    <title>Icons / Navigation / clear-empty</title>
    <desc>Created with Sketch.</desc>
    <g id="Icons-/-Navigation-/-clear-empty" stroke="none" stroke-width="1" fill="none" fill-rule="evenodd">
        <polygon id="Path" points="0 0 24 0 24 24 0 24"></polygon>
        <path d="M12,2 C6.47,2 2,6.47 2,12 C2,17.53 6.47,22 12,22 C17.53,22 22,17.53 22,12 C22,6.47 17.53,2 12,2 Z M12,20 C7.59,20 4,16.41 4,12 C4,7.59 7.59,4 12,4 C16.41,4 20,7.59 20,12 C20,16.41 16.41,20 12,20 Z M16.3,7.71 C15.91,7.32 15.28,7.32 14.89,7.71 L12,10.59 L9.11,7.7 C8.72,7.31 8.09,7.31 7.7,7.7 C7.31,8.09 7.31,8.72 7.7,9.11 L10.59,12 L7.7,14.89 C7.31,15.28 7.31,15.91 7.7,16.3 C8.09,16.69 8.72,16.69 9.11,16.3 L12,13.41 L14.89,16.3 C15.28,16.69 15.91,16.69 16.3,16.3 C16.69,15.91 16.69,15.28 16.3,14.89 L13.41,12 L16.3,9.11 C16.68,8.73 16.68,8.09 16.3,7.71 Z" id="Icon-Color" fill="#000000" fill-rule="nonzero"></path>
    </g>
</svg>