<?xml version="1.0" encoding="UTF-8"?>
<svg width="24px" height="24px" viewBox="0 0 24 24" version="1.1" xmlns="http://www.w3.org/2000/svg" xmlns:xlink="http://www.w3.org/1999/xlink">
    <!-- Generator: Sketch 57 (83077) - https://sketch.com -->
    <title>Icons / Text Formatting / code</title>
    <desc>Created with Sketch.</desc>
    <g id="Icons-/-Text-Formatting-/-code" stroke="none" stroke-width="1" fill="none" fill-rule="evenodd">
        <polygon id="Path" points="0 0 24 0 24 24 0 24"></polygon>
        <path d="M13.6918727,4.03432237 C14.2253388,4.17726418 14.5419213,4.72560114 14.3989795,5.25906724 L10.7755129,18.7820288 C10.632571,19.3154949 10.0842341,19.6320774 9.55076798,19.4891356 C9.01730188,19.3461938 8.70071939,18.7978568 8.8436612,18.2643907 L12.4671278,4.74142915 C12.6100696,4.20796305 13.1584066,3.89138056 13.6918727,4.03432237 Z M6.82842712,8.01908829 C7.21895142,8.40961258 7.21895142,9.04277756 6.82842712,9.43330185 L4,12.261729 L6.82842712,15.0901561 C7.21895142,15.4806804 7.21895142,16.1138454 6.82842712,16.5043697 C6.43790283,16.894894 5.80473785,16.894894 5.41421356,16.5043697 L2.58578644,13.6759425 L2.48412102,13.5665191 C1.84024006,12.8200629 1.83863036,11.7108283 2.47929192,10.9625581 L2.58578644,10.8475154 L5.41421356,8.01908829 C5.80473785,7.628564 6.43790283,7.628564 6.82842712,8.01908829 Z M16.4142136,8.01908829 C16.8047379,7.628564 17.4379028,7.628564 17.8284271,8.01908829 L17.8284271,8.01908829 L20.6568542,10.8475154 L20.7633488,10.9625581 C21.4040103,11.7108283 21.4024006,12.8200629 20.7585197,13.5665191 L20.7585197,13.5665191 L20.6568542,13.6759425 L17.8284271,16.5043697 C17.4379028,16.894894 16.8047379,16.894894 16.4142136,16.5043697 C16.0236893,16.1138454 16.0236893,15.4806804 16.4142136,15.0901561 L16.4142136,15.0901561 L19.2419336,12.2610219 L16.4142136,9.43330185 C16.0236893,9.04277756 16.0236893,8.40961258 16.4142136,8.01908829 Z" id="Icon-Color" fill="#000000" fill-rule="nonzero"></path>
    </g>
</svg>