<?xml version="1.0" encoding="UTF-8"?>
<svg width="24px" height="24px" viewBox="0 0 24 24" version="1.1" xmlns="http://www.w3.org/2000/svg" xmlns:xlink="http://www.w3.org/1999/xlink">
    <!-- Generator: Sketch 57 (83077) - https://sketch.com -->
    <title>Icons / Utility / color-empty</title>
    <desc>Created with Sketch.</desc>
    <g id="Icons-/-Utility-/-color-empty" stroke="none" stroke-width="1" fill="none" fill-rule="evenodd">
        <polygon id="Path" points="0 0 24 0 24 24 0 24"></polygon>
        <path d="M12,2 L17.66,7.66 C20.78,10.78 20.78,15.85 17.66,18.97 C16.1,20.53 14.05,21.31 12,21.31 C9.95,21.31 7.9,20.53 6.34,18.97 C3.28638298,15.916383 3.2214124,10.9948619 6.14508828,7.86175963 L6.34,7.66 L12,2 Z M16.24,17.56 C17.38,16.42 18,14.92 18,13.32 C18,11.72 17.38,10.21 16.24,9.08 L12,4.83 L7.76,9.08 C6.62,10.21 6,11.72 6,13.32 C6,14.92 6.62,16.42 7.76,17.56 C8.82352941,18.6329412 10.2236678,19.2452595 11.7186403,19.3135844 L12,19.32 C13.6,19.32 15.11,18.7 16.24,17.56 Z" id="Icon-Color" fill="#000000" fill-rule="nonzero"></path>
    </g>
</svg>