<?xml version="1.0" encoding="UTF-8"?>
<svg width="24px" height="24px" viewBox="0 0 24 24" version="1.1" xmlns="http://www.w3.org/2000/svg" xmlns:xlink="http://www.w3.org/1999/xlink">
    <!-- Generator: Sketch 57 (83077) - https://sketch.com -->
    <title>Icons / Utility / comment-empty</title>
    <desc>Created with Sketch.</desc>
    <g id="Icons-/-Utility-/-comment-empty" stroke="none" stroke-width="1" fill="none" fill-rule="evenodd">
        <polygon id="Path" points="0 0 24 0 24 24 0 24"></polygon>
        <path d="M20,2 C21.1045695,2 22,2.8954305 22,4 L22,16 C22,17.1045695 21.1045695,18 20,18 L14,18 L8.58123819,21.8705441 C8.41163744,21.9916875 8.20842298,22.0568107 8,22.0568107 C7.48716416,22.0568107 7.06449284,21.6707705 7.00672773,21.1734318 L7,21.0568107 L7,18 L4,18 C2.8954305,18 2,17.1045695 2,16 L2,4 C2,2.8954305 2.8954305,2 4,2 L20,2 Z M20,4 L4,4 L4,16 L9,16 L9,19 L13.2,16 L20,16 L20,4 Z" id="Icon-Color" fill="#000000" fill-rule="nonzero"></path>
    </g>
</svg>