<?xml version="1.0" encoding="UTF-8"?>
<svg width="24px" height="24px" viewBox="0 0 24 24" version="1.1" xmlns="http://www.w3.org/2000/svg" xmlns:xlink="http://www.w3.org/1999/xlink">
    <!-- Generator: Sketch 57 (83077) - https://sketch.com -->
    <title>Icons / Utility / comments</title>
    <desc>Created with Sketch.</desc>
    <g id="Icons-/-Utility-/-comments" stroke="none" stroke-width="1" fill="none" fill-rule="evenodd">
        <polygon id="Path" points="0 0 24 0 24 24 0 24"></polygon>
        <path d="M17,8 L20.7,8 C21.373097,8 21.9267153,8.51154965 21.9932882,9.16708255 L22,9.3 L22,17.0705421 C22,17.7436392 21.4884503,18.2972574 20.8329174,18.3638304 L20.7,18.3705421 L18.75,18.3705421 L18.75,20.6413409 L18.7419443,20.7312165 C18.6996084,20.9644657 18.4954599,21.1413409 18.25,21.1413409 C18.1720131,21.1413409 18.0954813,21.1231053 18.0263589,21.0885379 L17.9599268,21.048597 L14.2,18.3705421 L10.3,18.3705421 C9.62690296,18.3705421 9.07328475,17.8589925 9.00671175,17.2034596 L9,17.0705421 L9,16.365 L11.8,14.3705421 L15.7,14.3705421 C16.373097,14.3705421 16.9267153,13.8589925 16.9932882,13.2034596 L17,13.0705421 L17,8 L20.7,8 Z M13.7,2 C14.4179702,2 15,2.58202983 15,3.3 L15,11.0705421 C15,11.7885123 14.4179702,12.3705421 13.7,12.3705421 L9.8,12.3705421 L6.04007324,15.048597 C5.95537819,15.1089221 5.85398254,15.1413409 5.75,15.1413409 C5.50454011,15.1413409 5.30039163,14.9644657 5.25805567,14.7312165 L5.25,14.6413409 L5.25,12.3705421 L3.3,12.3705421 C2.58202983,12.3705421 2,11.7885123 2,11.0705421 L2,3.3 C2,2.58202983 2.58202983,2 3.3,2 L13.7,2 Z" id="Icon-Color" fill="#000000" fill-rule="nonzero"></path>
    </g>
</svg>