<?xml version="1.0" encoding="UTF-8"?>
<svg width="24px" height="24px" viewBox="0 0 24 24" version="1.1" xmlns="http://www.w3.org/2000/svg" xmlns:xlink="http://www.w3.org/1999/xlink">
    <!-- Generator: Sketch 57 (83077) - https://sketch.com -->
    <title>Icons / Utility / copy</title>
    <desc>Created with Sketch.</desc>
    <g id="Icons-/-Utility-/-copy" stroke="none" stroke-width="1" fill="none" fill-rule="evenodd">
        <polygon id="Path" points="0 0 24 0 24 24 0 24"></polygon>
        <path d="M16.1486946,21.9944872 L16,22 L4,22 C2.95,22 2.0822314,21.1799587 2.00551277,20.1486946 L2,20 L2,8 C2,6.95 2.82004132,6.0822314 3.85130541,6.00551277 L4,6 L4,8 L4,20 L18,20 C18,21.05 17.1799587,21.9177686 16.1486946,21.9944872 Z M20,2 C21.1,2 22,2.9 22,4 L22,4 L22,16 C22,17.1 21.1,18 20,18 L20,18 L8,18 C6.9,18 6,17.1 6,16 L6,16 L6,4 C6,2.9 6.9,2 8,2 L8,2 Z M20,4 L8,4 L8,16 L20,16 L20,4 Z" id="Icon-Color" fill="#000000" fill-rule="nonzero"></path>
    </g>
</svg>