<?xml version="1.0" encoding="UTF-8"?>
<svg width="24px" height="24px" viewBox="0 0 24 24" version="1.1" xmlns="http://www.w3.org/2000/svg" xmlns:xlink="http://www.w3.org/1999/xlink">
    <!-- Generator: Sketch 57 (83077) - https://sketch.com -->
    <title>Icons / Utility / dashboard</title>
    <desc>Created with Sketch.</desc>
    <g id="Icons-/-Utility-/-dashboard" stroke="none" stroke-width="1" fill="none" fill-rule="evenodd">
        <polygon id="Path" points="0 0 24 0 24 24 0 24"></polygon>
        <path d="M12,3 C18.0751322,3 23,7.92486775 23,14 C23,15.7629589 22.5841355,17.4684283 21.7978024,19.004967 C21.5618703,19.4659915 21.2936735,19.9095343 20.9955102,20.3323858 L20.7663049,20.6455947 C20.5839896,20.8866371 20.294338,21.0427385 19.968227,21.0427385 C19.4159423,21.0427385 18.968227,20.5950232 18.968227,20.0427385 C18.968227,19.8558383 19.0195008,19.6809138 19.1087493,19.5312638 L19.1733309,19.4362835 C19.4935974,19.0144101 19.7761736,18.5652016 20.0173986,18.0938345 C20.1291233,17.8755182 20.2316937,17.6530544 20.3249169,17.4268967 L19.0875661,17.1408469 C18.5494364,17.0166099 18.2139101,16.4796556 18.3381471,15.9415258 C18.4623842,15.4033961 18.9993385,15.0678698 19.5374682,15.1921068 L20.8754637,15.501538 C20.957955,15.0098282 21,14.5080614 21,14 C21,12.3762977 20.5700222,10.8530221 19.8177188,9.53782564 L18.497742,10.606803 C18.0685362,10.9543671 17.4388397,10.8881833 17.0912757,10.4589775 C16.7437116,10.0297716 16.8098954,9.40007517 17.2391012,9.05251111 L18.6364368,7.92063572 C17.2029612,6.35665308 15.2238783,5.30094059 13.0006955,5.05500569 L13,7 C13,7.55228475 12.5522847,8 12,8 C11.4477153,8 11,7.55228475 11,7 L11.0003032,5.05489527 C8.77688277,5.30060584 6.79755326,6.35625897 5.36388902,7.9202803 L6.76089875,9.05251111 C7.19010461,9.40007517 7.25628838,10.0297716 6.90872432,10.4589775 C6.56116027,10.8881833 5.93146383,10.9543671 5.50225797,10.606803 L4.18200284,9.53831224 C3.4298718,10.8533978 3,12.376498 3,14 C3,14.5080922 3.04205069,15.0098864 3.12455001,15.5016171 L4.46253176,15.1921068 C5.00066148,15.0678698 5.53761584,15.4033961 5.66185288,15.9415258 C5.78608991,16.4796556 5.45056359,17.0166099 4.91243387,17.1408469 L3.67515912,17.4270844 C3.77036224,17.6580304 3.87531195,17.885122 3.98980248,18.1078754 C4.18166697,18.4811681 4.39947539,18.8404738 4.64138644,19.1832166 L4.89126351,19.520343 C5.02144265,19.690018 5.09912109,19.90192 5.09912109,20.1319647 C5.09912109,20.6842495 4.65140584,21.1319647 4.09912109,21.1319647 C3.78352981,21.1319647 3.50208367,20.985772 3.31880986,20.7574137 L3.31257736,20.7482477 C2.89272442,20.2084534 2.52375131,19.6306209 2.21100487,19.0221397 C1.4190049,17.48122 1,15.7695937 1,14 C1,7.92486775 5.92486775,3 12,3 Z M14.8194841,9.12721859 C14.9306931,9.21490659 14.9872448,9.35486266 14.9681709,9.49519376 L14.1884386,15.231862 C14.1675872,15.42951 14.1183051,15.6281952 14.0363753,15.8212098 C13.6047856,16.8379714 12.4306649,17.312347 11.4139033,16.8807573 C10.3971417,16.4491676 9.92276617,15.2750469 10.3543559,14.2582853 C10.4363831,14.0650412 10.5452323,13.8913892 10.6747253,13.7398255 L10.6731568,13.7397133 L14.2577131,9.1936521 C14.3944968,9.02017823 14.6460102,8.99043494 14.8194841,9.12721859 Z" id="Icon-Color" fill="#000000" fill-rule="nonzero"></path>
    </g>
</svg>