<?xml version="1.0" encoding="UTF-8"?>
<svg width="24px" height="24px" viewBox="0 0 24 24" version="1.1" xmlns="http://www.w3.org/2000/svg" xmlns:xlink="http://www.w3.org/1999/xlink">
    <!-- Generator: Sketch 57 (83077) - https://sketch.com -->
    <title>Icons / Utility / delete</title>
    <desc>Created with Sketch.</desc>
    <g id="Icons-/-Utility-/-delete" stroke="none" stroke-width="1" fill="none" fill-rule="evenodd">
        <polygon id="Path" points="0 0 24 0 24 24 0 24"></polygon>
        <path d="M6,19 C6,20.1 6.9,21 8,21 L16,21 C17.1,21 18,20.1 18,19 L18,7 C18,7 18,7 16,7 L8,7 C6,7 6,7 6,7 L6,19 Z M8,9 C13.3333333,9 16,9 16,9 C16,9 16,12 16,18 C16,18.55 15.55,19 15,19 L9,19 C8.45,19 8,18.55 8,18 C8,12 8,9 8,9 Z M10,10.5714286 C10,10.2952862 10.2238576,10.0714286 10.5,10.0714286 C10.7761424,10.0714286 11,10.2952862 11,10.5714286 L11,17.4285714 C11,17.7047138 10.7761424,17.9285714 10.5,17.9285714 C10.2238576,17.9285714 10,17.7047138 10,17.4285714 L10,10.5714286 Z M13,10.5714286 C13,10.2952862 13.2238576,10.0714286 13.5,10.0714286 C13.7761424,10.0714286 14,10.2952862 14,10.5714286 L14,17.4285714 C14,17.7047138 13.7761424,17.9285714 13.5,17.9285714 C13.2238576,17.9285714 13,17.7047138 13,17.4285714 L13,10.5714286 Z M15.5,4 L14.79,3.29 C14.61,3.11 14.35,3 14.09,3 L9.91,3 C9.65,3 9.39,3.11 9.21,3.29 L8.5,4 L6,4 C5.45,4 5,4.45 5,5 C5,5.55 5.45,6 6,6 L18,6 C18.55,6 19,5.55 19,5 C19,4.45 18.55,4 18,4 L15.5,4 Z" id="Icon-Color" fill="#000000" fill-rule="nonzero"></path>
    </g>
</svg>