<?xml version="1.0" encoding="UTF-8"?>
<svg width="24px" height="24px" viewBox="0 0 24 24" version="1.1" xmlns="http://www.w3.org/2000/svg" xmlns:xlink="http://www.w3.org/1999/xlink">
    <!-- Generator: Sketch 57 (83077) - https://sketch.com -->
    <title>Icons / Utility / document-pdf</title>
    <desc>Created with Sketch.</desc>
    <g id="Icons-/-Utility-/-document-pdf" stroke="none" stroke-width="1" fill="none" fill-rule="evenodd">
        <polygon id="Path" points="0 0 24 0 24 24 0 24"></polygon>
        <path d="M14,2 L20,8 L20,20 C20,21.05 19.1799587,21.9177686 18.1486946,21.9944872 L18,22 L5.99,22 C4.94,22 4.08134298,21.1799587 4.00545267,20.1486946 L4,20 L4.01,4 C4.01,2.95 4.82092975,2.0822314 5.85136551,2.00551277 L6,2 L14,2 Z M13,14 L11,14 C10.7511111,14 10.5496296,14.1738272 10.5079287,14.4091084 L10.5,14.5 L10.5,19.5 C10.5,19.7488889 10.6738272,19.9503704 10.9091084,19.9920713 L11,20 L13,20 C13.7811765,20 14.4206228,19.4065052 14.4931488,18.6447059 L14.5,18.5 L14.5,15.5 C14.5,14.67 13.83,14 13,14 Z M17.75,14 L16.5,14 C15.9892857,14 15.5647959,14.3880102 15.5067602,14.883801 L15.5,15 L15.5,19.25 C15.5,19.66 15.84,20 16.25,20 C16.6258333,20 16.9428472,19.7143056 16.9930729,19.3508854 L17,19.25 L17,18 L17.75,18 C18.16,18 18.5,17.66 18.5,17.25 C18.5,16.8741667 18.2143056,16.5571528 17.8508854,16.5069271 L17.75,16.5 L17,16.5 L17,15.5 L17.75,15.5 C18.16,15.5 18.5,15.16 18.5,14.75 C18.5,14.34 18.16,14 17.75,14 Z M8,14 L6.5,14 C5.95,14 5.5,14.45 5.5,15 L5.5,15 L5.5,19.25 C5.5,19.66 5.84,20 6.25,20 C6.66,20 7,19.66 7,19.25 L7,19.25 L7,18 L8,18 C8.83,18 9.5,17.33 9.5,16.5 L9.5,16.5 L9.5,15.5 C9.5,14.67 8.83,14 8,14 L8,14 Z M13,15.5 L13,18.5 L12,18.5 L12,15.5 L13,15.5 Z M13,4 L6,4 L6,12 L18,12 L18,9 L13,9 L13,4 Z M7,16.5 L8,16.5 L8,15.5 L7,15.5 L7,16.5 Z" id="Icon-Color" fill="#000000" fill-rule="nonzero"></path>
    </g>
</svg>