<?xml version="1.0" encoding="UTF-8"?>
<svg width="24px" height="24px" viewBox="0 0 24 24" version="1.1" xmlns="http://www.w3.org/2000/svg" xmlns:xlink="http://www.w3.org/1999/xlink">
    <!-- Generator: Sketch 57 (83077) - https://sketch.com -->
    <title>Icons / Utility / download</title>
    <desc>Created with Sketch.</desc>
    <g id="Icons-/-Utility-/-download" stroke="none" stroke-width="1" fill="none" fill-rule="evenodd">
        <polygon id="Path" points="0 0 24 0 24 24 0 24"></polygon>
        <path d="M12,4 C15.64,4 18.67,6.59 19.35,10.04 C21.95,10.22 24,12.36 24,15 C24,17.76 21.76,20 19,20 L19,20 L6,20 C2.69,20 0,17.31 0,14 C0,10.91 2.34,8.36 5.35,8.04 C6.6,5.64 9.11,4 12,4 Z M12,6 C9.94,6 8.08,7.14 7.13,8.97 L7.13,8.97 L6.63,9.92 L5.56,10.03 C3.53,10.24 2,11.95 2,14 C2,16.21 3.79,18 6,18 L6,18 L19,18 C20.65,18 22,16.65 22,15 C22,13.45 20.78,12.14 19.22,12.04 L19.22,12.04 L17.69,11.93 L17.39,10.43 C16.88,7.86 14.62,6 12,6 Z M12,9 C12.5522847,9 13,9.44771525 13,10 L13,12 L14.7928932,12 C14.8989798,12 15.0015904,12.0337142 15.0864005,12.0952092 L15.1464466,12.1464466 C15.320013,12.320013 15.3392981,12.5894374 15.2043021,12.7843055 L15.1464466,12.8535534 L12.3535534,15.6464466 C12.179987,15.820013 11.9105626,15.8392981 11.7156945,15.7043021 L11.6464466,15.6464466 L8.85355339,12.8535534 C8.7597852,12.7597852 8.70710678,12.6326082 8.70710678,12.5 C8.70710678,12.2545401 8.88398194,12.0503916 9.11723115,12.0080557 L9.20710678,12 L11,12 L11,10 C11,9.44771525 11.4477153,9 12,9 Z" id="Combined-Shape" fill="#000000" fill-rule="nonzero"></path>
    </g>
</svg>