<?xml version="1.0" encoding="UTF-8"?>
<svg width="24px" height="24px" viewBox="0 0 24 24" version="1.1" xmlns="http://www.w3.org/2000/svg" xmlns:xlink="http://www.w3.org/1999/xlink">
    <!-- Generator: Sketch 57 (83077) - https://sketch.com -->
    <title>Icons / Utility / drag-handle</title>
    <desc>Created with Sketch.</desc>
    <g id="Icons-/-Utility-/-drag-handle" stroke="none" stroke-width="1" fill="none" fill-rule="evenodd">
        <polygon id="Path" points="0 0 24 0 24 24 0 24"></polygon>
        <path d="M19,9 L5,9 C4.45,9 4,9.45 4,10 C4,10.55 4.45,11 5,11 L19,11 C19.55,11 20,10.55 20,10 C20,9.45 19.55,9 19,9 Z M5,15 L19,15 C19.55,15 20,14.55 20,14 C20,13.45 19.55,13 19,13 L5,13 C4.45,13 4,13.45 4,14 C4,14.55 4.45,15 5,15 Z" id="Icon-Color" fill="#000000" fill-rule="nonzero"></path>
    </g>
</svg>