<?xml version="1.0" encoding="UTF-8"?>
<svg width="24px" height="24px" viewBox="0 0 24 24" version="1.1" xmlns="http://www.w3.org/2000/svg" xmlns:xlink="http://www.w3.org/1999/xlink">
    <!-- Generator: Sketch 57 (83077) - https://sketch.com -->
    <title>Icons / Utility / duplicate</title>
    <desc>Created with Sketch.</desc>
    <g id="Icons-/-Utility-/-duplicate" stroke="none" stroke-width="1" fill="none" fill-rule="evenodd">
        <polygon id="Path" points="0 0 24 0 24 24 0 24"></polygon>
        <path d="M4,6 L4,20 L18,20 C18,21.05 17.1799587,21.9177686 16.1486946,21.9944872 L16,22 L4,22 C2.95,22 2.0822314,21.1799587 2.00551277,20.1486946 L2,20 L2,8 C2,6.95 2.82004132,6.0822314 3.85130541,6.00551277 L4,6 Z M8,2 L20,2 C21.05,2 21.9177686,2.82004132 21.9944872,3.85130541 L22,4 L22,16 C22,17.05 21.1799587,17.9177686 20.1486946,17.9944872 L20,18 L8,18 C6.95,18 6.0822314,17.1799587 6.00551277,16.1486946 L6,16 L6,4 C6,2.95 6.82004132,2.0822314 7.85130541,2.00551277 L8,2 L20,2 Z M20,4 L8,4 L8,16 L20,16 L20,4 Z M14,6 C14.55,6 15,6.45 15,7 L15,7 L15,9 L17,9 C17.55,9 18,9.45 18,10 C18,10.55 17.55,11 17,11 L17,11 L15,11 L15,13 C15,13.55 14.55,14 14,14 C13.45,14 13,13.55 13,13 L13,13 L13,11 L13,11 L11,11 C10.45,11 10,10.55 10,10 C10,9.45 10.45,9 11,9 L11,9 L13,9 L13,7 C13,6.45 13.45,6 14,6 Z" id="Icon-Color" fill="#000000" fill-rule="nonzero"></path>
    </g>
</svg>