<?xml version="1.0" encoding="UTF-8"?>
<svg width="24px" height="24px" viewBox="0 0 24 24" version="1.1" xmlns="http://www.w3.org/2000/svg" xmlns:xlink="http://www.w3.org/1999/xlink">
    <!-- Generator: Sketch 57 (83077) - https://sketch.com -->
    <title>Icons / Utility / email</title>
    <desc>Created with Sketch.</desc>
    <g id="Icons-/-Utility-/-email" stroke="none" stroke-width="1" fill="none" fill-rule="evenodd">
        <polygon id="Path" points="0 0 24 0 24 24 0 24"></polygon>
        <path d="M20,4 C21.1,4 22,4.9 22,6 L22,6 L22,18 C22,19.1 21.1,20 20,20 L20,20 L4,20 C2.9,20 2,19.1 2,18 L2,18 L2.01,6 C2.01,4.9 2.9,4 4,4 L4,4 Z M4,7.5 L4,18 L20,18 L20,7.513 L13.036656,11.8411853 C12.3878432,12.2443556 11.5660434,12.2427442 10.9188166,11.8370327 L10.9188166,11.8370327 L4,7.5 Z M18.4,6 L5.607,6 L11.9764404,9.96252441 L18.4,6 Z" id="Icon-Color" fill="#000000" fill-rule="nonzero"></path>
    </g>
</svg>