<?xml version="1.0" encoding="UTF-8"?>
<svg width="24px" height="24px" viewBox="0 0 24 24" version="1.1" xmlns="http://www.w3.org/2000/svg" xmlns:xlink="http://www.w3.org/1999/xlink">
    <!-- Generator: Sketch 57 (83077) - https://sketch.com -->
    <title>Icons / Utility / email-unsubscribe</title>
    <desc>Created with Sketch.</desc>
    <g id="Icons-/-Utility-/-email-unsubscribe" stroke="none" stroke-width="1" fill="none" fill-rule="evenodd">
        <polygon id="Path" points="0 0 24 0 24 24 0 24"></polygon>
        <path d="M17.5,11 C20.5375661,11 23,13.4624339 23,16.5 C23,19.5375661 20.5375661,22 17.5,22 C14.4624339,22 12,19.5375661 12,16.5 C12,13.4624339 14.4624339,11 17.5,11 Z M19,2 C20.05,2 20.9177686,2.82004132 20.9944872,3.85130541 L21,4 L21.0010455,9.86559935 C20.380678,9.53754601 19.7087573,9.29395763 19.0005978,9.15014855 L19,5.513 L12.036656,9.84118531 C11.4377518,10.2133425 10.6914505,10.240597 10.0711174,9.92348475 L9.91881659,9.8370327 L3,5.5 L3,16 L10.016375,16.0004142 C10.0055154,16.1655404 10,16.3321261 10,16.5 C10,17.01391 10.0516879,17.5157476 10.1501485,18.0005978 L3,18 C1.95,18 1.0822314,17.1799587 1.00551277,16.1486946 L1,16 L1.01,4 C1.01,2.95 1.82092975,2.0822314 2.85136551,2.00551277 L3,2 L19,2 Z M19.75,15.75 L15.25,15.75 C14.8357864,15.75 14.5,16.0857864 14.5,16.5 C14.5,16.8796958 14.7821539,17.193491 15.1482294,17.2431534 L15.25,17.25 L19.75,17.25 C20.1642136,17.25 20.5,16.9142136 20.5,16.5 C20.5,16.1203042 20.2178461,15.806509 19.8517706,15.7568466 L19.75,15.75 Z M17.4,4 L4.607,4 L10.9764404,7.96252441 L17.4,4 Z" id="Icon-Color" fill="#000000" fill-rule="nonzero"></path>
    </g>
</svg>