<?xml version="1.0" encoding="UTF-8"?>
<svg width="24px" height="24px" viewBox="0 0 24 24" version="1.1" xmlns="http://www.w3.org/2000/svg" xmlns:xlink="http://www.w3.org/1999/xlink">
    <!-- Generator: Sketch 57 (83077) - https://sketch.com -->
    <title>Icons / Utility / email-notification</title>
    <desc>Created with Sketch.</desc>
    <g id="Icons-/-Utility-/-email-notification" stroke="none" stroke-width="1" fill="none" fill-rule="evenodd">
        <polygon id="Path" points="0 0 24 0 24 24 0 24"></polygon>
        <path d="M19,21.0059771 C19,22.1072455 18.1045449,23 16.9999895,23 C15.8954342,23 15,22.1072455 15,21.0059771 C15,21.0030776 15.4461679,21.0042715 16.0971137,21.0052246 L17.3802348,21.0054844 C18.303992,21.003185 19.0048689,20.9941108 19,21.0059771 Z M17,10 C17.5522847,10 18,10.4477153 18,11 C18,11.0422418 17.9973809,11.0838718 17.9922961,11.1247365 C19.7216399,11.5656568 21,13.1335399 21,15 L21,18.01 L21.8454959,18.8347968 C21.9908866,18.9765699 22.0362773,19.182235 21.9805605,19.3638753 C21.9933351,19.4062605 22,19.4523519 22,19.5 C22,19.7761424 21.7761424,20 21.5,20 L12.5,20 C12.2238576,20 12,19.7761424 12,19.5 C12,19.4491032 12.0076048,19.3999825 12.0217401,19.3537124 C11.9698422,19.1786284 12.0117763,18.9798187 12.1493253,18.8387599 L12.1586566,18.8294286 L13,18.008 L13,15 C13,13.1335399 14.2783601,11.5656568 16.00728,11.1241511 C16.0026191,11.0838718 16,11.0422418 16,11 C16,10.4477153 16.4477153,10 17,10 Z M19,2 C20.05,2 20.9177686,2.82004132 20.9944872,3.85130541 L21,4 L21.0010455,9.86559935 C20.380678,9.53754601 19.7087573,9.29395763 19.0005978,9.15014855 L19,5.513 L12.036656,9.84118531 C11.4377518,10.2133425 10.6914505,10.240597 10.0711174,9.92348475 L9.91881659,9.8370327 L3,5.5 L3,16 L10.016375,16.0004142 C10.0055154,16.1655404 10,16.3321261 10,16.5 C10,17.01391 10.0516879,17.5157476 10.1501485,18.0005978 L3,18 C1.95,18 1.0822314,17.1799587 1.00551277,16.1486946 L1,16 L1.01,4 C1.01,2.95 1.82092975,2.0822314 2.85136551,2.00551277 L3,2 L19,2 Z M17.4,4 L4.607,4 L10.9764404,7.96252441 L17.4,4 Z" id="Icon-color" fill="#000000" fill-rule="nonzero"></path>
    </g>
</svg>