<?xml version="1.0" encoding="UTF-8"?>
<svg width="24px" height="24px" viewBox="0 0 24 24" version="1.1" xmlns="http://www.w3.org/2000/svg" xmlns:xlink="http://www.w3.org/1999/xlink">
    <!-- Generator: Sketch 58 (84663) - https://sketch.com -->
    <title>Icons / Navigation / filter</title>
    <desc>Created with Sketch.</desc>
    <g id="Icons-/-Navigation-/-filter" stroke="none" stroke-width="1" fill="none" fill-rule="evenodd">
        <polygon id="Path" points="0 0 24 0 24 24 0 24"></polygon>
        <path d="M12,2.10583397 C16.7244475,2.10583397 20.5543689,3.54205449 20.5543689,5.3137223 C20.5543689,5.5264355 20.4991593,5.73431313 20.3938207,5.93545 L20.4005997,5.93494575 L20.366539,5.98542657 C20.3205061,6.06645018 20.2663155,6.14634157 20.2043051,6.22497408 L13.6286311,15.913834 L13.6295348,21.2381191 C13.6295348,21.6592573 12.8999672,22.0006573 12,22.0006573 C11.1562807,22.0006573 10.4623268,21.7005987 10.3788783,21.3160842 L10.3704652,21.2381191 L10.3696311,15.912834 L3.79095897,6.21894682 C3.73092174,6.14226 3.67831823,6.06438085 3.63346099,5.98542657 L3.59940033,5.93494575 C3.50084067,5.73431313 3.44563112,5.5264355 3.44563112,5.3137223 C3.44563112,3.54205449 7.27555252,2.10583397 12,2.10583397 Z M12,3.90599881 C8.95346181,3.90599881 6.48375463,4.61699176 6.48375463,5.49404601 C6.48375463,6.37110025 8.95346181,7.0820932 12,7.0820932 C15.0465382,7.0820932 17.5162454,6.37110025 17.5162454,5.49404601 C17.5162454,4.61699176 15.0465382,3.90599881 12,3.90599881 Z" id="Icon-Color" fill="#000000" fill-rule="nonzero"></path>
    </g>
</svg>