<?xml version="1.0" encoding="UTF-8"?>
<svg width="24px" height="24px" viewBox="0 0 24 24" version="1.1" xmlns="http://www.w3.org/2000/svg" xmlns:xlink="http://www.w3.org/1999/xlink">
    <!-- Generator: Sketch 57 (83077) - https://sketch.com -->
    <title>Icons / Utility / fingerprint-ios</title>
    <desc>Created with Sketch.</desc>
    <g id="Icons-/-Utility-/-fingerprint-ios" stroke="none" stroke-width="1" fill="none" fill-rule="evenodd">
        <polygon id="Path" points="0 0 24 0 24 24 0 24"></polygon>
        <path d="M11.8485577,11.1951923 C12.0908654,11.1951923 12.3072115,11.3423077 12.3980769,11.5629808 C12.7355769,12.3721154 12.9822115,13.7567308 13.0903846,15.4572115 C13.2028846,17.1533654 13.1725962,18.9317308 13.0038462,20.4677885 C12.9692308,20.7706731 12.7182692,20.9956731 12.4153846,20.9956731 C12.39375,20.9956731 12.3721154,20.9956731 12.3504808,20.9913462 C12.1903846,20.9740385 12.0519231,20.9004808 11.9524038,20.775 C11.8528846,20.6495192 11.8096154,20.49375 11.8269231,20.3379808 C11.9870192,18.9230769 12.0173077,17.1923077 11.9134615,15.5956731 C11.8139423,14.0120192 11.5889423,12.7052885 11.3033654,12.0129808 C11.1778846,11.7100962 11.3206731,11.3639423 11.6235577,11.2384615 C11.6927885,11.2125 11.7706731,11.1951923 11.8485577,11.1951923 Z M11.9177885,9.13557692 C12.5798077,9.13557692 13.1855769,9.37788462 13.6701923,9.83221154 C14.1461538,10.2822115 14.5009615,10.9182692 14.7129808,11.71875 C15.0375,12.9259615 15.2235577,14.6350962 15.2538462,16.66875 C15.2538462,16.8245192 15.1932692,16.9759615 15.0850962,17.0884615 C14.9950962,17.1784615 14.8829423,17.2352308 14.7619269,17.2565538 L14.6697115,17.2658654 C14.3365385,17.2658654 14.0725962,17.0019231 14.0682692,16.6817308 C14.0423077,14.7475962 13.8692308,13.1336538 13.5706731,12.0216346 C13.4322115,11.5110577 12.9951923,10.3168269 11.9134615,10.3168269 C11.4201923,10.3168269 11.0134615,10.4769231 10.7711538,10.7711538 C10.4899038,11.1173077 10.4120192,11.6754808 10.5504808,12.3850962 C11.1043269,15.2149038 11.2254808,17.8975962 10.9096154,20.3639423 C10.8706731,20.6625 10.6197115,20.8831731 10.3211538,20.8831731 C10.2995192,20.8831731 10.2735577,20.8831731 10.2475962,20.8788462 C9.92740385,20.8399038 9.69375,20.5413462 9.73701923,20.2168269 C10.0355769,17.8802885 9.91875,15.3230769 9.38653846,12.61875 C9.12259615,11.26875 9.49903846,10.4596154 9.85817308,10.0225962 C10.3298077,9.45144231 11.0610577,9.13557692 11.9177885,9.13557692 Z M14.6610577,17.7115385 C14.98125,17.7115385 15.2408654,17.9581731 15.2495192,18.2826923 C15.2495192,18.3216346 15.2798077,19.1913462 15.1153846,20.0610577 C15.0634615,20.3379808 14.8211538,20.5413462 14.5355769,20.5413462 C14.4706731,20.5413462 14.4100962,20.5283654 14.3495192,20.5110577 C14.0682692,20.4201923 13.8995192,20.1259615 13.9557692,19.8274038 C14.0942308,19.1004808 14.0682692,18.3346154 14.0682692,18.3259615 C14.0565865,18.03 14.2622019,17.779601 14.5431707,17.7230178 L14.6394231,17.7115385 L14.6610577,17.7115385 Z M8.45192308,8.80240385 C8.59038462,8.80240385 8.72451923,8.85 8.83269231,8.94086538 C9.06634615,9.13990385 9.11394231,9.47740385 8.94086538,9.72836538 C8.47355769,10.4076923 8.32644231,11.2774038 8.50384615,12.3072115 C8.90625,14.6264423 9.26971154,17.3307692 8.91490385,19.8274038 C8.88028846,20.0850962 8.67815171,20.2880876 8.42701211,20.3300154 L8.33076923,20.3379808 L8.27884615,20.3336538 C8.11875,20.3206731 7.97163462,20.2427885 7.87211538,20.1129808 C7.76826923,19.9831731 7.725,19.8144231 7.74663462,19.65 C8.07115385,17.3177885 7.725,14.7302885 7.33990385,12.5105769 C7.11057692,11.1822115 7.32692308,9.98798077 7.96298077,9.05769231 C8.07548077,8.89759615 8.25721154,8.80240385 8.45192308,8.80240385 Z M12,7.11923077 C13.2764423,7.11923077 14.4274038,7.62548077 15.3274038,8.57740385 C16.2230769,9.52067308 16.8288462,10.875 17.0841346,12.4975962 C17.2961538,13.8346154 17.4,14.925 17.4,15.8466346 C17.4086538,17.6769231 17.1836538,19.1394231 17.175,19.2 C17.1317308,19.4899038 16.8850962,19.7019231 16.5908654,19.7019231 C16.5605769,19.7019231 16.5302885,19.6975962 16.5,19.6932692 C16.3442308,19.6673077 16.2100962,19.5850962 16.1149038,19.4552885 C16.0197115,19.3254808 15.9807692,19.1697115 16.0067308,19.0139423 C16.0067308,18.9966346 16.2230769,17.56875 16.2144231,15.8509615 C16.2100962,15.0028846 16.1105769,13.96875 15.9072115,12.6879808 C15.6995192,11.3466346 15.2149038,10.2302885 14.5182692,9.46009615 C13.8346154,8.70721154 12.9649038,8.30913462 11.9956731,8.30913462 C11.3466346,8.30913462 10.7149038,8.44759615 10.1697115,8.70721154 C10.0875,8.74182692 10.0052885,8.76346154 9.91442308,8.76346154 C9.72836538,8.76346154 9.55961538,8.68125 9.44711538,8.53413462 C9.33461538,8.39134615 9.29567308,8.20961538 9.33894231,8.03221154 C9.38221154,7.85913462 9.49903846,7.71634615 9.65913462,7.63846154 C10.36875,7.29663462 11.1778846,7.11923077 12,7.11923077 Z M12.1298077,4.97307692 C13.6875,4.97307692 15.1326923,5.51394231 16.3139423,6.53942308 C17.4519231,7.52596154 18.3086538,8.93653846 18.7889423,10.6067308 C19.3254808,12.45 19.4769231,14.7649038 19.2259615,17.3048077 C19.1990385,17.5778846 18.9977564,17.7894231 18.737595,17.8330603 L18.6375,17.8413462 L18.58125,17.8370192 C18.2567308,17.8024038 18.01875,17.5125 18.0490385,17.1879808 C18.2826923,14.7995192 18.1485577,12.6360577 17.6552885,10.9355769 C17.23125,9.47740385 16.5,8.26153846 15.5350962,7.42644231 C14.5745192,6.59134615 13.3975962,6.15 12.1298077,6.15 C10.3774038,6.15 8.81538462,6.78605769 7.74230769,7.94134615 C6.72980769,9.03173077 6.22788462,10.4855769 6.34038462,12.0302885 C6.43557692,13.3673077 6.58701923,14.1072115 6.72115385,14.7605769 C6.92451923,15.7644231 7.08461538,16.55625 6.95913462,18.7370192 C6.9375,19.0485577 6.67788462,19.2951923 6.36634615,19.2951923 C6.31009615,19.2951923 6.2625,19.2908654 6.21057692,19.2735577 C5.93798077,19.1913462 5.76057692,18.9317308 5.77788462,18.6418269 C5.89038462,16.6384615 5.74326923,15.9158654 5.55721154,15.0028846 C5.41442308,14.3149038 5.25432692,13.5360577 5.15480769,12.1211538 C5.02067308,10.2432692 5.63076923,8.47355769 6.87259615,7.14086538 C8.175,5.74326923 10.0399038,4.97307692 12.1298077,4.97307692 Z M5.66105769,5.83846154 C5.80384615,5.83846154 5.94230769,5.89038462 6.05048077,5.98557692 C6.17163462,6.08942308 6.24519231,6.23653846 6.25384615,6.39230769 C6.26682692,6.54807692 6.21490385,6.69951923 6.11105769,6.82067308 C4.86923077,8.24423077 4.18557692,10.0658654 4.18557692,11.9567308 C4.18557692,13.2331731 4.41923077,14.2629808 4.8,15.5177885 C4.84759615,15.6692308 4.83028846,15.8293269 4.75673077,15.9677885 C4.68317308,16.10625 4.55769231,16.2057692 4.40625,16.2533654 C4.35,16.2706731 4.28942308,16.2793269 4.23317308,16.2793269 C3.96923077,16.2793269 3.74423077,16.1105769 3.66634615,15.8596154 C3.25528846,14.5009615 3,13.3759615 3,11.9567308 C3,9.78028846 3.7875,7.68173077 5.21538462,6.04182692 C5.32788462,5.91201923 5.48798077,5.83846154 5.66105769,5.83846154 Z M18.58125,6.13701923 C18.7413462,6.13701923 18.8884615,6.19759615 19.0009615,6.31009615 C19.5504808,6.85528846 20.0567308,7.74230769 20.4288462,8.79807692 C20.7966346,9.84519231 21,10.9701923 21,11.9567308 C21,12.0951923 20.9956731,12.3115385 20.9913462,12.4456731 C20.9757692,12.7338462 20.7639231,12.9624375 20.4914438,13.005274 L20.3985577,13.0125 L20.3725962,13.0125 C20.2125,13.0081731 20.0697115,12.9389423 19.9615385,12.8221154 C19.8533654,12.7052885 19.7971154,12.5581731 19.8057692,12.3980769 C19.8100962,12.2899038 19.8144231,12.0908654 19.8144231,11.9610577 C19.8144231,11.1173077 19.6370192,10.1480769 19.3211538,9.23076923 C19.0096154,8.33509615 18.5899038,7.57788462 18.1615385,7.14951923 C17.9322115,6.91586538 17.9322115,6.53942308 18.1615385,6.31009615 C18.2740385,6.19759615 18.4211538,6.13701923 18.58125,6.13701923 Z M12,3 C14.0466346,3 16.0067308,3.73557692 17.68125,5.12451923 C17.9278846,5.33653846 17.9625,5.70865385 17.7548077,5.95961538 C17.6423077,6.09375 17.4778846,6.17163462 17.3004808,6.17163462 C17.1620192,6.17163462 17.0278846,6.11971154 16.9197115,6.03317308 C15.4658654,4.82163462 13.7653846,4.18125 12,4.18125 C10.3211538,4.18125 8.75048077,4.67019231 7.45673077,5.59615385 C7.35288462,5.66971154 7.23605769,5.70865385 7.11057692,5.70865385 C6.92019231,5.70865385 6.73846154,5.61778846 6.63028846,5.46201923 C6.53509615,5.33221154 6.50048077,5.17644231 6.52644231,5.02067308 C6.55240385,4.86490385 6.63461538,4.72644231 6.76442308,4.63557692 C8.26153846,3.56682692 10.0701923,3 12,3 Z" id="Icon-Color" fill="#000000" fill-rule="nonzero"></path>
    </g>
</svg>