<?xml version="1.0" encoding="UTF-8"?>
<svg width="24px" height="24px" viewBox="0 0 24 24" version="1.1" xmlns="http://www.w3.org/2000/svg" xmlns:xlink="http://www.w3.org/1999/xlink">
    <!-- Generator: Sketch 57 (83077) - https://sketch.com -->
    <title>Icons / Utility / folder</title>
    <desc>Created with Sketch.</desc>
    <g id="Icons-/-Utility-/-folder" stroke="none" stroke-width="1" fill="none" fill-rule="evenodd">
        <polygon id="Path" points="0 0 24 0 24 24 0 24"></polygon>
        <path d="M9.75735931,3 C10.5530088,3 11.3160705,3.31607052 11.8786797,3.87867966 L13,5 L20,5 C21.1045695,5 22,5.8954305 22,7 L22,19 C22,20.1045695 21.1045695,21 20,21 L4,21 C2.8954305,21 2,20.1045695 2,19 L2,5 C2,3.8954305 2.8954305,3 4,3 L9.75735931,3 Z M20,8 L4,8 L4,19 L20,19 L20,8 Z" id="Icon-Color" fill="#000000" fill-rule="nonzero"></path>
    </g>
</svg>