<?xml version="1.0" encoding="UTF-8"?>
<svg width="24px" height="24px" viewBox="0 0 24 24" version="1.1" xmlns="http://www.w3.org/2000/svg" xmlns:xlink="http://www.w3.org/1999/xlink">
    <!-- Generator: Sketch 57 (83077) - https://sketch.com -->
    <title>Icons / Utility / folder-add</title>
    <desc>Created with Sketch.</desc>
    <g id="Icons-/-Utility-/-folder-add" stroke="none" stroke-width="1" fill="none" fill-rule="evenodd">
        <polygon id="Path" points="0 0 24 0 24 24 0 24"></polygon>
        <path d="M17.5,11 C20.5375661,11 23,13.4624339 23,16.5 C23,19.5375661 20.5375661,22 17.5,22 C14.4624339,22 12,19.5375661 12,16.5 C12,13.4624339 14.4624339,11 17.5,11 Z M17.5,13.5 C17.1203042,13.5 16.806509,13.7821539 16.7568466,14.1482294 L16.75,14.25 L16.75,15.75 L15.25,15.75 C14.8357864,15.75 14.5,16.0857864 14.5,16.5 C14.5,16.8796958 14.7821539,17.193491 15.1482294,17.2431534 L15.25,17.25 L16.749,17.25 L16.75,18.75 C16.75,19.1642136 17.0857864,19.5 17.5,19.5 C17.8796958,19.5 18.193491,19.2178461 18.2431534,18.8517706 L18.25,18.75 L18.249,17.25 L19.75,17.25 C20.1642136,17.25 20.5,16.9142136 20.5,16.5 C20.5,16.1203042 20.2178461,15.806509 19.8517706,15.7568466 L19.75,15.75 L18.25,15.75 L18.25,14.25 C18.25,13.8357864 17.9142136,13.5 17.5,13.5 Z M8.75735931,1 C9.55300878,1 10.3160705,1.31607052 10.8786797,1.87867966 L12,3 L19,3 C20.1045695,3 21,3.8954305 21,5 L21.0010455,9.86559935 C20.380678,9.53754601 19.7087573,9.29395763 19.0005978,9.15014855 L19,6 L3,6 L3,17 L10.016441,17.0005886 C10.0623836,17.6977576 10.203589,18.3689016 10.4271621,19.0011254 L3,19 C1.8954305,19 1,18.1045695 1,17 L1,3 C1,1.8954305 1.8954305,1 3,1 L8.75735931,1 Z" id="Icon-Color" fill="#000000" fill-rule="nonzero"></path>
    </g>
</svg>