<?xml version="1.0" encoding="UTF-8"?>
<svg width="24px" height="24px" viewBox="0 0 24 24" version="1.1" xmlns="http://www.w3.org/2000/svg" xmlns:xlink="http://www.w3.org/1999/xlink">
    <!-- Generator: Sketch 57 (83077) - https://sketch.com -->
    <title>Icons / Utility / help</title>
    <desc>Created with Sketch.</desc>
    <g id="Icons-/-Utility-/-help" stroke="none" stroke-width="1" fill="none" fill-rule="evenodd">
        <polygon id="Path" points="0 0 24 0 24 24 0 24"></polygon>
        <path d="M12,2 C17.5228475,2 22,6.4771525 22,12 C22,17.5228475 17.5228475,22 12,22 C6.4771525,22 2,17.5228475 2,12 C2,6.4771525 6.4771525,2 12,2 Z M12,4 C7.581722,4 4,7.581722 4,12 C4,16.418278 7.581722,20 12,20 C16.418278,20 20,16.418278 20,12 C20,7.581722 16.418278,4 12,4 Z M12,15.5 C12.6903559,15.5 13.25,16.0596441 13.25,16.75 C13.25,17.4403559 12.6903559,18 12,18 C11.3096441,18 10.75,17.4403559 10.75,16.75 C10.75,16.0596441 11.3096441,15.5 12,15.5 Z M12,6 C13.9893411,6 15.4568366,7.51428355 15.4640701,8.992541 C15.4642831,8.99549224 15.4648772,9.00979585 15.4662223,9.04218235 C15.4790269,9.35788924 15.4628208,9.65987075 15.3864196,10.0217371 C15.2751667,10.5486751 15.0535855,11.0619832 14.6974692,11.539051 C14.5774047,11.6998942 14.4433454,11.8545244 14.2895723,12.0076097 C14.0046164,12.2870593 13.1780686,12.9454911 13.2457113,12.8841088 L13.198283,12.9254546 C13.027596,13.080172 13,13.1718592 13,13.5 C13,14.0522847 12.5522847,14.5 12,14.5 C11.4477153,14.5 11,14.0522847 11,13.5 C11,12.5164731 11.3116916,11.8966568 11.9831431,11.3322307 C12.0899677,11.2424333 12.4942109,10.9273119 12.4479512,10.9639822 C12.6212992,10.8265684 12.7556111,10.7106965 12.8837819,10.5850434 C12.9629356,10.5062225 13.0330051,10.4254011 13.0947569,10.3426758 C13.4021851,9.93083269 13.484758,9.53973506 13.4678653,9.12323272 C13.4658542,9.08175725 13.4658542,9.08175725 13.464097,9.00351562 C13.464097,8.61111048 12.8738504,8 12,8 C11.0689125,8 10.5,8.55389205 10.5,9.00351562 C10.5,9.55580037 10.0522847,10.0035156 9.5,10.0035156 C8.94771525,10.0035156 8.5,9.55580037 8.5,9.00351562 C8.5,7.43716896 9.97614218,6 12,6 Z" id="Icon-Color" fill="#000000" fill-rule="nonzero"></path>
    </g>
</svg>