<?xml version="1.0" encoding="UTF-8"?>
<svg width="24px" height="24px" viewBox="0 0 24 24" version="1.1" xmlns="http://www.w3.org/2000/svg" xmlns:xlink="http://www.w3.org/1999/xlink">
    <!-- Generator: Sketch 57 (83077) - https://sketch.com -->
    <title>Icons / Navigation / hierarchy</title>
    <desc>Created with Sketch.</desc>
    <g id="Icons-/-Navigation-/-hierarchy" stroke="none" stroke-width="1" fill="none" fill-rule="evenodd">
        <polygon id="Path" points="0 0 24 0 24 24 0 24"></polygon>
        <path d="M12,2 C13.6568542,2 15,3.34314575 15,5 C15,6.30588222 14.1656226,7.41688515 13.0009007,7.82897577 L13,11 L18,11 C19.1045695,11 20,11.8954305 20,13 L20,16 C20,16.0567416 19.9976371,16.1129313 19.9930043,16.1684761 C21.1618375,16.5780816 22,17.6911591 22,19 C22,20.6568542 20.6568542,22 19,22 C17.3431458,22 16,20.6568542 16,19 C16,17.6937479 16.8348501,16.5824856 18.0000889,16.1706743 L18,13 L13,13 L13.0009007,16.1710242 C14.1656226,16.5831148 15,17.6941178 15,19 C15,20.6568542 13.6568542,22 12,22 C10.3431458,22 9,20.6568542 9,19 C9,17.6937479 9.8348501,16.5824856 11.0000889,16.1706743 L11,13 L6,13 L6.00090072,16.1710242 C7.16562257,16.5831148 8,17.6941178 8,19 C8,20.6568542 6.65685425,22 5,22 C3.34314575,22 2,20.6568542 2,19 C2,17.6911591 2.83816253,16.5780816 4.0070209,16.168234 C4.00236292,16.1129313 4,16.0567416 4,16 L4,13 C4,11.8954305 4.8954305,11 6,11 L11,11 L11.0000889,7.82932572 C9.8348501,7.41751442 9,6.30625206 9,5 C9,3.34314575 10.3431458,2 12,2 Z M12,18 C11.4477153,18 11,18.4477153 11,19 C11,19.5522847 11.4477153,20 12,20 C12.5522847,20 13,19.5522847 13,19 C13,18.4477153 12.5522847,18 12,18 Z M5,18 C4.44771525,18 4,18.4477153 4,19 C4,19.5522847 4.44771525,20 5,20 C5.55228475,20 6,19.5522847 6,19 C6,18.4477153 5.55228475,18 5,18 Z M19,18 C18.4477153,18 18,18.4477153 18,19 C18,19.5522847 18.4477153,20 19,20 C19.5522847,20 20,19.5522847 20,19 C20,18.4477153 19.5522847,18 19,18 Z M12,4 C11.4477153,4 11,4.44771525 11,5 C11,5.55228475 11.4477153,6 12,6 C12.5522847,6 13,5.55228475 13,5 C13,4.44771525 12.5522847,4 12,4 Z" id="Icon-Color" fill="#000000" fill-rule="nonzero"></path>
    </g>
</svg>