<?xml version="1.0" encoding="UTF-8"?>
<svg width="24px" height="24px" viewBox="0 0 24 24" version="1.1" xmlns="http://www.w3.org/2000/svg" xmlns:xlink="http://www.w3.org/1999/xlink">
    <!-- Generator: Sketch 57 (83077) - https://sketch.com -->
    <title>Icons / Utility / info</title>
    <desc>Created with Sketch.</desc>
    <g id="Icons-/-Utility-/-info" stroke="none" stroke-width="1" fill="none" fill-rule="evenodd">
        <polygon id="Path" points="0 0 24 0 24 24 0 24"></polygon>
        <path d="M12,2 C17.5228475,2 22,6.4771525 22,12 C22,17.5228475 17.5228475,22 12,22 C6.4771525,22 2,17.5228475 2,12 C2,6.4771525 6.4771525,2 12,2 Z M12,4 C7.581722,4 4,7.581722 4,12 C4,16.418278 7.581722,20 12,20 C16.418278,20 20,16.418278 20,12 C20,7.581722 16.418278,4 12,4 Z M12,10.5 C12.5522847,10.5 13,10.9477153 13,11.5 L13,16.5 C13,17.0522847 12.5522847,17.5 12,17.5 C11.4477153,17.5 11,17.0522847 11,16.5 L11,11.5 C11,10.9477153 11.4477153,10.5 12,10.5 Z M12,6.5 C12.6903559,6.5 13.25,7.05964406 13.25,7.75 C13.25,8.44035594 12.6903559,9 12,9 C11.3096441,9 10.75,8.44035594 10.75,7.75 C10.75,7.05964406 11.3096441,6.5 12,6.5 Z" id="Icon-Color" fill="#000000" fill-rule="nonzero"></path>
    </g>
</svg>