<?xml version="1.0" encoding="UTF-8"?>
<svg width="24px" height="24px" viewBox="0 0 24 24" version="1.1" xmlns="http://www.w3.org/2000/svg" xmlns:xlink="http://www.w3.org/1999/xlink">
    <!-- Generator: Sketch 57 (83077) - https://sketch.com -->
    <title>Icons / Utility / notifications-off</title>
    <desc>Created with Sketch.</desc>
    <g id="Icons-/-Utility-/-notifications-off" stroke="none" stroke-width="1" fill="none" fill-rule="evenodd">
        <polygon id="Path" points="0 0 24 0 24 24 0 24"></polygon>
        <path d="M10,20.5 L14,20.5 C14,21.6045695 13.1045695,22.5 12,22.5 C10.9456382,22.5 10.0818349,21.6841222 10.0054857,20.6492623 L10,20.5 L14,20.5 Z M6.12132034,3.70710678 L19.6985438,17.284432 C19.7042862,17.2900387 19.7099613,17.2957138 19.715568,17.3014562 L21.6776695,19.263456 C22.0681938,19.6539803 22.0681938,20.2871452 21.6776695,20.6776695 C21.2871452,21.0681938 20.6539803,21.0681938 20.263456,20.6776695 L18.586,19 L5,19 L4.918,18.996 L4.85103878,18.9889807 C4.83405099,18.9863719 4.81662474,18.9832978 4.79927424,18.9797599 C4.77725392,18.9753602 4.75556352,18.9701664 4.73416039,18.964279 C4.71853672,18.9599023 4.70314866,18.9552713 4.68785748,18.9502619 C4.66820232,18.9438775 4.6484208,18.9366843 4.62894148,18.928896 L4.57677845,18.9063266 C4.5561086,18.8966234 4.53570605,18.8862061 4.51572305,18.8751242 C4.50360556,18.8685012 4.49138689,18.8613931 4.47929125,18.8540045 C4.45372505,18.8382813 4.42886931,18.8215099 4.4048407,18.8036865 L4.38297765,18.7870723 L4.29289322,18.7071068 C4.25749917,18.6717127 4.22531295,18.6343256 4.19633458,18.5953066 C4.17849009,18.5711307 4.1617187,18.546275 4.14606743,18.5206602 L4.12467117,18.4840621 C4.11379392,18.4642939 4.10337664,18.4438914 4.09365378,18.4230991 L4.07122549,18.371336 C4.06331574,18.3515792 4.05612249,18.3317977 4.04954668,18.3117364 C4.04472872,18.2968513 4.04009773,18.2814633 4.03584514,18.265993 C4.02983363,18.2444365 4.0246398,18.2227461 4.02016515,18.2007941 C4.01670217,18.1833753 4.01362808,18.165949 4.0110178,18.1484669 C4.00810098,18.1294204 4.00574796,18.1096949 4.00397748,18.0898018 C4.00189498,18.0659949 4.00063489,18.042681 4.00018615,18.0193545 L4.00016755,17.9816379 L4.001,17.946 L4.001,17.981 L4.003,17.918 L4.01101934,17.8510388 C4.01362808,17.834051 4.01670217,17.8166247 4.02024007,17.7992742 C4.0246398,17.7772539 4.02983363,17.7555635 4.03572097,17.7341604 C4.04009773,17.7185367 4.04472872,17.7031487 4.04973809,17.6878575 C4.05612249,17.6682023 4.06331574,17.6484208 4.07110396,17.6289415 L4.09367336,17.5767785 C4.10337664,17.5561086 4.11379392,17.5357061 4.12487577,17.515723 C4.13149883,17.5036056 4.13860692,17.4913869 4.14599545,17.4792912 C4.1617187,17.453725 4.17849009,17.4288693 4.19631351,17.4048407 L4.21292769,17.3829777 C4.23766884,17.3515341 4.26442691,17.3213595 4.29289322,17.2928932 L6,15.585 L6,10 C6,8.96440043 6.26236642,7.99007983 6.72425545,7.139882 L4.70710678,5.12132034 C4.31658249,4.73079605 4.31658249,4.09763107 4.70710678,3.70710678 C5.09763107,3.31658249 5.73079605,3.31658249 6.12132034,3.70710678 Z M4.929,18.997 L5,19 L4.96774538,18.9994829 L4.94073988,18.9982534 L4.929,18.997 Z M4.918,18.996 L4.92,18.997 L4.9137692,18.9962979 L4.918,18.996 Z M4.00396641,17.9107499 L4.003,17.918 L4.00278786,17.9247615 L4.00396641,17.9107499 Z M8.23397841,8.64877832 C8.10389976,9.01127627 8.02467211,9.39800334 8.00489531,9.80035966 L8,10 L8,17 L16,17 L16,16.414 L8.23397841,8.64877832 Z M12,2 C12.5522847,2 13,2.44771525 13,3 L13.0008069,4.08309386 C15.8381232,4.55950437 18,7.02728549 18,10 L18,12.786 L16,10.786 L16,10 C16,7.790861 14.209139,6 12,6 C11.753956,6 11.5131005,6.02221475 11.2793298,6.06474795 L9.67838052,4.46567171 C10.096776,4.28994744 10.5392906,4.16028468 10.9995784,4.08302919 L11,3 C11,2.44771525 11.4477153,2 12,2 Z" id="Icon-Color" fill="#000000" fill-rule="nonzero"></path>
    </g>
</svg>