<?xml version="1.0" encoding="UTF-8"?>
<svg width="24px" height="24px" viewBox="0 0 24 24" version="1.1" xmlns="http://www.w3.org/2000/svg" xmlns:xlink="http://www.w3.org/1999/xlink">
    <!-- Generator: Sketch 57 (83077) - https://sketch.com -->
    <title>Icons / Utility / notifications</title>
    <desc>Created with Sketch.</desc>
    <g id="Icons-/-Utility-/-notifications" stroke="none" stroke-width="1" fill="none" fill-rule="evenodd">
        <polygon id="Path" points="0 0 24 0 24 24 0 24"></polygon>
        <path d="M10,20.5 L14,20.5 C14,21.6045695 13.1045695,22.5 12,22.5 C10.9456382,22.5 10.0818349,21.6841222 10.0054857,20.6492623 L10,20.5 L14,20.5 Z M4.929,18.997 L5,19 L4.96774538,18.9994829 L4.94073988,18.9982534 L4.929,18.997 Z M19.996384,18.0852242 L19.9889807,18.1489612 L19.9889807,18.1489612 C19.9863719,18.165949 19.9832978,18.1833753 19.9797599,18.2007258 C19.9753602,18.2227461 19.9701664,18.2444365 19.964279,18.2658396 C19.9599023,18.2814633 19.9552713,18.2968513 19.9502619,18.3121425 C19.9438775,18.3317977 19.9366843,18.3515792 19.928896,18.3710585 L19.9063266,18.4232215 L19.9063266,18.4232215 C19.8966234,18.4438914 19.8862061,18.4642939 19.8751242,18.484277 C19.8685012,18.4963944 19.8613931,18.5086131 19.8540045,18.5207088 C19.8382813,18.546275 19.8215099,18.5711307 19.8036865,18.5951593 L19.7870723,18.6170223 L19.7870723,18.6170223 L19.7071068,18.7071068 C19.6717127,18.7425008 19.6343256,18.774687 19.5953066,18.8036654 C19.5711307,18.8215099 19.546275,18.8382813 19.5206602,18.8539326 L19.4840621,18.8753288 L19.4840621,18.8753288 C19.4642939,18.8862061 19.4438914,18.8966234 19.4230991,18.9063462 L19.371336,18.9287745 L19.371336,18.9287745 C19.3515792,18.9366843 19.3317977,18.9438775 19.3117364,18.9504533 C19.2968513,18.9552713 19.2814633,18.9599023 19.265993,18.9641549 C19.2444365,18.9701664 19.2227461,18.9753602 19.2007941,18.9798348 C19.1833753,18.9832978 19.165949,18.9863719 19.1484669,18.9889822 C19.1281144,18.9920941 19.1070574,18.994564 19.085811,18.9963697 C19.0679231,18.997855 19.050591,18.9988772 19.0332468,18.9994506 C19.0224019,18.9998151 19.0112225,19 19,19 L5,19 L4.918,18.996 L4.85103878,18.9889807 C4.83405099,18.9863719 4.81662474,18.9832978 4.79927424,18.9797599 C4.77725392,18.9753602 4.75556352,18.9701664 4.73416039,18.964279 C4.71853672,18.9599023 4.70314866,18.9552713 4.68785748,18.9502619 C4.66820232,18.9438775 4.6484208,18.9366843 4.62894148,18.928896 L4.57677845,18.9063266 C4.5561086,18.8966234 4.53570605,18.8862061 4.51572305,18.8751242 C4.50360556,18.8685012 4.49138689,18.8613931 4.47929125,18.8540045 C4.45372505,18.8382813 4.42886931,18.8215099 4.4048407,18.8036865 L4.38297765,18.7870723 L4.29289322,18.7071068 C4.25749917,18.6717127 4.22531295,18.6343256 4.19633458,18.5953066 C4.17849009,18.5711307 4.1617187,18.546275 4.14606743,18.5206602 L4.12467117,18.4840621 C4.11379392,18.4642939 4.10337664,18.4438914 4.09365378,18.4230991 L4.07122549,18.371336 C4.06331574,18.3515792 4.05612249,18.3317977 4.04954668,18.3117364 C4.04472872,18.2968513 4.04009773,18.2814633 4.03584514,18.265993 C4.02983363,18.2444365 4.0246398,18.2227461 4.02016515,18.2007941 C4.01670217,18.1833753 4.01362808,18.165949 4.0110178,18.1484669 C4.00810098,18.1294204 4.00574796,18.1096949 4.00397748,18.0898018 C4.00189498,18.0659949 4.00063489,18.042681 4.00018615,18.0193545 L4.00016755,17.9816379 L4.001,17.946 L4.001,17.967 L4.003,17.918 L4.01101934,17.8510388 C4.01362808,17.834051 4.01670217,17.8166247 4.02024007,17.7992742 C4.0246398,17.7772539 4.02983363,17.7555635 4.03572097,17.7341604 C4.04009773,17.7185367 4.04472872,17.7031487 4.04973809,17.6878575 C4.05612249,17.6682023 4.06331574,17.6484208 4.07110396,17.6289415 L4.09367336,17.5767785 C4.10337664,17.5561086 4.11379392,17.5357061 4.12487577,17.515723 C4.13149883,17.5036056 4.13860692,17.4913869 4.14599545,17.4792912 C4.1617187,17.453725 4.17849009,17.4288693 4.19631351,17.4048407 L4.21292769,17.3829777 C4.23766884,17.3515341 4.26442691,17.3213595 4.29289322,17.2928932 L6,15.585 L6,10 C6,7.02693683 8.16238395,4.55892549 11.0001915,4.08292631 L11,3 C11,2.44771525 11.4477153,2 12,2 C12.5522847,2 13,2.44771525 13,3 L13.0008069,4.08309386 C15.8381232,4.55950437 18,7.02728549 18,10 L18,15.586 L19.7071068,17.2928932 L19.78,17.375 L19.8029342,17.4037101 L19.8029342,17.4037101 C19.8210482,17.4281855 19.838066,17.4533726 19.8539326,17.4793398 C19.8611967,17.4910654 19.8681231,17.5029561 19.8747838,17.5149548 C19.8856841,17.5347123 19.8961319,17.5551184 19.9058847,17.5759152 C19.9138742,17.5928959 19.9213819,17.6102044 19.9283772,17.6276703 L19.9501291,17.6872762 L19.9501291,17.6872762 C19.9550667,17.7024696 19.9598084,17.7181954 19.9641549,17.734007 C19.9701664,17.7555635 19.9753602,17.7772539 19.9798348,17.7992059 C19.9832978,17.8166247 19.9863719,17.834051 19.9889822,17.8515331 C19.9920328,17.8714753 19.9944666,17.892114 19.9962623,17.912935 C19.9978436,17.9317345 19.9989053,17.9497336 19.9994829,17.9677454 C19.9998183,17.9777892 20,17.9888734 20,18 L19.999,18.019 L19.996384,18.0852242 L19.996384,18.0852242 Z M4.918,18.996 L4.92,18.997 L4.9137692,18.9962979 L4.918,18.996 Z M19.748,17.336 L19.7573861,17.3469639 L19.7573861,17.3469639 L19.773,17.366 L19.748,17.336 Z M12,6 C9.85780461,6 8.10892112,7.68396847 8.00489531,9.80035966 L8,10 L8,17 L16,17 L16,10 C16,7.790861 14.209139,6 12,6 Z" id="Icon-Color" fill="#000000" fill-rule="nonzero"></path>
    </g>
</svg>