<?xml version="1.0" encoding="UTF-8"?>
<svg width="24px" height="24px" viewBox="0 0 24 24" version="1.1" xmlns="http://www.w3.org/2000/svg" xmlns:xlink="http://www.w3.org/1999/xlink">
    <!-- Generator: Sketch 57 (83077) - https://sketch.com -->
    <title>Icons / Utility / people-add</title>
    <desc>Created with Sketch.</desc>
    <g id="Icons-/-Utility-/-people-add" stroke="none" stroke-width="1" fill="none" fill-rule="evenodd">
        <polygon id="Path" points="0 0 24 0 24 24 0 24"></polygon>
        <path d="M6,8.85082552 C4.34,8.85082552 3.01,7.51082552 3.01,5.85082552 C3.01,4.19082552 4.34,2.85082552 6,2.85082552 C6.32,2.85082552 6.63,2.90082552 6.91,2.99082552 C6.34,3.80082552 6.01,4.78082552 6.01,5.85082552 C6.01,6.92082552 6.35,7.89082552 6.91,8.71082552 C6.63,8.80082552 6.32,8.85082552 6,8.85082552 Z M11,8.85082552 C9.34,8.85082552 8.01,7.51082552 8.01,5.85082552 C8.01,4.19082552 9.34,2.85082552 11,2.85082552 C12.66,2.85082552 14,4.19082552 14,5.85082552 C14,7.51082552 12.66,8.85082552 11,8.85082552 Z M11,10.8508255 C11.7022022,10.8508255 12.6509484,10.9740975 13.5865529,11.2206415 C11.9416185,12.2483295 10.7297975,13.9036952 10.2865131,15.8513323 L6,15.8508255 C5.45,15.8508255 5,15.4008255 5,14.8508255 L5,13.8508255 C5,11.8508255 9,10.8508255 11,10.8508255 Z M4.38,11.0108255 C3.55,11.7408255 3,12.6708255 3,13.8508255 L3,15.3508255 C3,15.5208255 3.02,15.6908255 3.05,15.8508255 L0.5,15.8508255 C0.22,15.8508255 -1.72306613e-13,15.6308255 -1.72306613e-13,15.3508255 L-1.72306613e-13,13.8508255 C-1.72306613e-13,12.3108255 2.37,11.3608255 4.38,11.0108255 Z M17.5,12 C20.5375661,12 23,14.4624339 23,17.5 C23,20.5375661 20.5375661,23 17.5,23 C14.4624339,23 12,20.5375661 12,17.5 C12,14.4624339 14.4624339,12 17.5,12 Z M17.5,14.5 C17.0857864,14.5 16.75,14.8357864 16.75,15.25 L16.75,15.25 L16.749,16.7498255 L15.25,16.75 C14.8357864,16.75 14.5,17.0857864 14.5,17.5 C14.5,17.8796958 14.7821539,18.193491 15.1482294,18.2431534 L15.25,18.25 L16.749,18.2498255 L16.75,19.75 C16.75,20.1296958 17.0321539,20.443491 17.3982294,20.4931534 L17.5,20.5 C17.9142136,20.5 18.25,20.1642136 18.25,19.75 L18.25,19.75 L18.249,18.2498255 L19.75,18.25 C20.1642136,18.25 20.5,17.9142136 20.5,17.5 C20.5,17.0857864 20.1642136,16.75 19.75,16.75 L18.249,16.7498255 L18.25,15.25 C18.25,14.8703042 17.9678461,14.556509 17.6017706,14.5068466 Z" id="Icon-color" fill="#000000" fill-rule="nonzero"></path>
    </g>
</svg>