<?xml version="1.0" encoding="UTF-8"?>
<svg width="24px" height="24px" viewBox="0 0 24 24" version="1.1" xmlns="http://www.w3.org/2000/svg" xmlns:xlink="http://www.w3.org/1999/xlink">
    <!-- Generator: Sketch 57 (83077) - https://sketch.com -->
    <title>Icons / Utility / people-delegate</title>
    <desc>Created with Sketch.</desc>
    <g id="Icons-/-Utility-/-people-delegate" stroke="none" stroke-width="1" fill="none" fill-rule="evenodd">
        <polygon id="Path" points="0 0 24 0 24 24 0 24"></polygon>
        <path d="M18,11 C19.66,11 20.99,9.66 20.99,8 C20.99,6.34 19.66,5 18,5 C17.68,5 17.37,5.05 17.09,5.14 C17.66,5.95 17.99,6.93 17.99,8 C17.99,9.07 17.65,10.04 17.09,10.86 C17.37,10.95 17.68,11 18,11 Z M13,11 C14.66,11 15.99,9.66 15.99,8 C15.99,6.34 14.66,5 13,5 C11.34,5 10,6.34 10,8 C10,9.66 11.34,11 13,11 Z M13,13 C11,13 7,14 7,16 L7,17 C7,17.55 7.45,18 8,18 L18,18 C18.55,18 19,17.55 19,17 L19,16 C19,14 15,13 13,13 Z M19.62,13.16 C21.563,13.4983333 23.8424,14.3973333 23.9922011,15.847967 L24,16 L24,17.5 C24,17.7488889 23.8261728,17.9503704 23.5908916,17.9920713 L23.5,18 L20.95,18 C20.97,17.8933333 20.9855556,17.7822222 20.9937037,17.6696296 L21,17.5 L21,16 C21,14.82 20.45,13.89 19.62,13.16 Z M7.80642031,10.236848 C7.823437,10.2601265 7.83955548,10.2841648 7.85462954,10.3089093 C7.8610888,10.3193485 7.86728269,10.3299588 7.8732648,10.3406557 C7.88496626,10.3617158 7.89600488,10.3832235 7.90627011,10.4051653 C7.91502742,10.4238321 7.92319471,10.442855 7.93074469,10.4620645 C7.93711934,10.4781907 7.94318985,10.4948744 7.9488223,10.5117585 C7.95510538,10.5308295 7.96072344,10.5495663 7.96578089,10.5684221 L7.9792738,10.6249002 L7.9792738,10.6249002 C7.98310989,10.6439486 7.98635948,10.6623009 7.98909459,10.6807149 C7.99218667,10.7010396 7.99464098,10.722096 7.99643108,10.7433414 C7.99786993,10.7607248 7.99888825,10.7780559 7.99945782,10.795399 C7.99981828,10.8062163 8,10.8173005 8,10.8284271 L7.99998755,10.871762 C8.00126875,11.12935 7.90364182,11.3873387 7.70710678,11.5838737 L4.87867966,14.4123009 C4.48815536,14.8028252 3.85499039,14.8028252 3.46446609,14.4123009 C3.0739418,14.0217766 3.0739418,13.3886116 3.46446609,12.9980873 L4.634,11.828 L1,11.8284271 C0.44771525,11.8284271 6.76353751e-17,11.3807119 0,10.8284271 C-6.76353751e-17,10.2761424 0.44771525,9.82842712 1,9.82842712 L4.585,9.828 L3.46446609,8.70710678 C3.0739418,8.31658249 3.0739418,7.68341751 3.46446609,7.29289322 C3.85499039,6.90236893 4.48815536,6.90236893 4.87867966,7.29289322 L7.70710678,10.1213203 L7.778,10.201 L7.779,10.202 L7.80642031,10.236848 L7.80642031,10.236848 Z M7.748,10.165 L7.75932488,10.1776416 L7.75932488,10.1776416 L7.772,10.193 L7.748,10.165 Z" id="Icon-Color" fill="#000000" fill-rule="nonzero"></path>
    </g>
</svg>