<?xml version="1.0" encoding="UTF-8"?>
<svg width="24px" height="24px" viewBox="0 0 24 24" version="1.1" xmlns="http://www.w3.org/2000/svg" xmlns:xlink="http://www.w3.org/1999/xlink">
    <!-- Generator: Sketch 57 (83077) - https://sketch.com -->
    <title>Icons / Utility / person-select</title>
    <desc>Created with Sketch.</desc>
    <g id="Icons-/-Utility-/-person-select" stroke="none" stroke-width="1" fill="none" fill-rule="evenodd">
        <polygon id="Path" points="0 0 24 0 24 24 0 24"></polygon>
        <path d="M12,20 L11.14,19.14 C9.96,17.96 9.97,16.04 11.16,14.88 L12,14.06 C11.61,14.02 11.32,14 11,14 C8.33,14 3,15.34 3,18 L3,20 L12,20 Z M21.31,13.2 L21.32,13.21 C21.7,13.6 21.7,14.22 21.32,14.6 L16.18,19.78 C15.79,20.17 15.15,20.17 14.76,19.78 L12.69,17.69 C12.31,17.3 12.31,16.68 12.69,16.3 L12.7,16.29 C13.09,15.9 13.72,15.9 14.1,16.29 L15.47,17.66 L19.9,13.2 C20.29,12.81 20.92,12.81 21.31,13.2 Z M11,4 C13.21,4 15,5.79 15,8 C15,10.21 13.21,12 11,12 C8.79,12 7,10.21 7,8 C7,5.79 8.79,4 11,4 Z" id="Icon-Color" fill="#000000" fill-rule="nonzero"></path>
    </g>
</svg>