<?xml version="1.0" encoding="UTF-8"?>
<svg width="24px" height="24px" viewBox="0 0 24 24" version="1.1" xmlns="http://www.w3.org/2000/svg" xmlns:xlink="http://www.w3.org/1999/xlink">
    <!-- Generator: Sketch 57 (83077) - https://sketch.com -->
    <title>Icons / Utility / person-remove</title>
    <desc>Created with Sketch.</desc>
    <g id="Icons-/-Utility-/-person-remove" stroke="none" stroke-width="1" fill="none" fill-rule="evenodd">
        <polygon id="Path" points="0 0 24 0 24 24 0 24"></polygon>
        <path d="M8,10 C10.21,10 12,8.21 12,6 C12,3.79 10.21,2 8,2 C5.79,2 4,3.79 4,6 C4,8.21 5.79,10 8,10 Z M8,12 C9.05840567,12 10.534799,12.2105652 11.9314778,12.6304498 C10.7921003,13.9315638 10.1021295,15.6352062 10.1021295,17.5 C10.1021295,17.6681959 10.1077426,17.8350809 10.1187916,18.0004777 L1,18 C0.45,18 0,17.55 0,17 L0,17 L0,16 C0,13.34 5.33,12 8,12 Z M17.5,12 C20.5375661,12 23,14.4624339 23,17.5 C23,20.5375661 20.5375661,23 17.5,23 C14.4624339,23 12,20.5375661 12,17.5 C12,14.4624339 14.4624339,12 17.5,12 Z M19.75,16.75 L15.25,16.75 C14.8357864,16.75 14.5,17.0857864 14.5,17.5 C14.5,17.9142136 14.8357864,18.25 15.25,18.25 L15.25,18.25 L19.75,18.25 C20.1642136,18.25 20.5,17.9142136 20.5,17.5 C20.5,17.0857864 20.1642136,16.75 19.75,16.75 L19.75,16.75 Z" id="Icon-Color" fill="#000000" fill-rule="nonzero"></path>
    </g>
</svg>