<?xml version="1.0" encoding="UTF-8"?>
<svg width="24px" height="24px" viewBox="0 0 24 24" version="1.1" xmlns="http://www.w3.org/2000/svg" xmlns:xlink="http://www.w3.org/1999/xlink">
    <!-- Generator: Sketch 58 (84663) - https://sketch.com -->
    <title>Icons / Utility / person-access</title>
    <desc>Created with Sketch.</desc>
    <g id="Icons-/-Utility-/-person-access" stroke="none" stroke-width="1" fill="none" fill-rule="evenodd">
        <polygon id="Path" points="0 0 24 0 24 24 0 24"></polygon>
        <path d="M8,9.97956555 C10.21,9.97956555 12,8.18956555 12,5.97956555 C12,3.76956555 10.21,1.97956555 8,1.97956555 C5.79,1.97956555 4,3.76956555 4,5.97956555 C4,8.18956555 5.79,9.97956555 8,9.97956555 Z M8,11.9795656 C9.56322772,11.9795656 12.0382639,12.4388976 13.8215687,13.3535479 C13.7681726,13.6634622 13.7418117,13.981082 13.7418117,14.3048587 C13.7418117,14.7000427 13.7810823,15.0860545 13.855934,15.4592046 L11.39,17.9795656 L1,17.9795656 C0.489285714,17.9795656 0.0647959184,17.5915553 0.00676020408,17.0957645 L-4.88498131e-14,16.9795656 L-4.88498131e-14,15.9795656 C-4.88498131e-14,13.3195656 5.33,11.9795656 8,11.9795656 Z" id="Icon-Color" fill="#000000" fill-rule="nonzero"></path>
        <path d="M20.734972,13.0381542 C22.928045,13.0381542 24.7058248,14.8159341 24.7058248,17.009007 C24.7058248,19.20208 22.928045,20.9798599 20.734972,20.9798599 C18.8934299,20.9798599 17.3447152,19.7263287 16.8955392,18.0259774 L14.0478248,18.0251542 L13.4937043,20.3480722 L10.5847587,20.3480722 L10.0288248,18.0251542 L9.70482483,18.0257799 C9.15254008,18.0257799 8.70482483,17.5780646 8.70482483,17.0257799 L8.70482483,16.9922342 C8.70482483,16.4399494 9.15254008,15.9922342 9.70482483,15.9922342 L16.8955392,15.9920367 C17.3447152,14.2916854 18.8934299,13.0381542 20.734972,13.0381542 Z M20.734972,15.2040739 C19.7381207,15.2040739 18.9300389,16.0121557 18.9300389,17.009007 C18.9300389,18.0058584 19.7381207,18.8139401 20.734972,18.8139401 C21.7318233,18.8139401 22.5399051,18.0058584 22.5399051,17.009007 C22.5399051,16.0121557 21.7318233,15.2040739 20.734972,15.2040739 Z" id="Combined-Shape" fill="#000000" fill-rule="nonzero" transform="translate(16.705325, 17.009007) rotate(-45.000000) translate(-16.705325, -17.009007) "></path>
    </g>
</svg>