<?xml version="1.0" encoding="UTF-8"?>
<svg width="24px" height="24px" viewBox="0 0 24 24" version="1.1" xmlns="http://www.w3.org/2000/svg" xmlns:xlink="http://www.w3.org/1999/xlink">
    <!-- Generator: Sketch 57 (83077) - https://sketch.com -->
    <title>Icons / Utility / person-delegate</title>
    <desc>Created with Sketch.</desc>
    <g id="Icons-/-Utility-/-person-delegate" stroke="none" stroke-width="1" fill="none" fill-rule="evenodd">
        <polygon id="Path" points="0 0 24 0 24 24 0 24"></polygon>
        <path d="M15,12 C17.21,12 19,10.21 19,8 C19,5.79 17.21,4 15,4 C12.79,4 11,5.79 11,8 C11,10.21 12.79,12 15,12 Z M15,14 C17.6106667,14 22.7644247,15.2811062 22.9921914,17.8246224 L23,18 L23,19 C23,19.5107143 22.6119898,19.9352041 22.116199,19.9932398 L22,20 L8,20 C7.48928571,20 7.06479592,19.6119898 7.0067602,19.116199 L7,19 L7,18 C7,15.34 12.33,14 15,14 Z M8.80642031,10.236848 C8.823437,10.2601265 8.83955548,10.2841648 8.85462954,10.3089093 C8.8610888,10.3193485 8.86728269,10.3299588 8.8732648,10.3406557 C8.88496626,10.3617158 8.89600488,10.3832235 8.90627011,10.4051653 C8.91502742,10.4238321 8.92319471,10.442855 8.93074469,10.4620645 C8.93711934,10.4781907 8.94318985,10.4948744 8.9488223,10.5117585 C8.95510538,10.5308295 8.96072344,10.5495663 8.96578089,10.5684221 L8.9792738,10.6249002 L8.9792738,10.6249002 C8.98310989,10.6439486 8.98635948,10.6623009 8.98909459,10.6807149 C8.99218667,10.7010396 8.99464098,10.722096 8.99643108,10.7433414 C8.99786993,10.7607248 8.99888825,10.7780559 8.99945782,10.795399 C8.99981828,10.8062163 9,10.8173005 9,10.8284271 L8.99998755,10.871762 C9.00126875,11.12935 8.90364182,11.3873387 8.70710678,11.5838737 L5.87867966,14.4123009 C5.48815536,14.8028252 4.85499039,14.8028252 4.46446609,14.4123009 C4.0739418,14.0217766 4.0739418,13.3886116 4.46446609,12.9980873 L5.634,11.828 L2,11.8284271 C1.44771525,11.8284271 1,11.3807119 1,10.8284271 C1,10.2761424 1.44771525,9.82842712 2,9.82842712 L5.585,9.828 L4.46446609,8.70710678 C4.0739418,8.31658249 4.0739418,7.68341751 4.46446609,7.29289322 C4.85499039,6.90236893 5.48815536,6.90236893 5.87867966,7.29289322 L8.70710678,10.1213203 L8.778,10.201 L8.779,10.202 L8.80642031,10.236848 L8.80642031,10.236848 Z M8.748,10.165 L8.75932488,10.1776416 L8.75932488,10.1776416 L8.772,10.193 L8.748,10.165 Z" id="Icon-Color" fill="#000000" fill-rule="nonzero"></path>
    </g>
</svg>