<?xml version="1.0" encoding="UTF-8"?>
<svg width="24px" height="24px" viewBox="0 0 24 24" version="1.1" xmlns="http://www.w3.org/2000/svg" xmlns:xlink="http://www.w3.org/1999/xlink">
    <!-- Generator: Sketch 57 (83077) - https://sketch.com -->
    <title>Icons / Utility / photo-add</title>
    <desc>Created with Sketch.</desc>
    <g id="Icons-/-Utility-/-photo-add" stroke="none" stroke-width="1" fill="none" fill-rule="evenodd">
        <polygon id="Path" points="0 0 24 0 24 24 0 24"></polygon>
        <path d="M17.5,12 C20.5375661,12 23,14.4624339 23,17.5 C23,20.5375661 20.5375661,23 17.5,23 C14.4624339,23 12,20.5375661 12,17.5 C12,14.4624339 14.4624339,12 17.5,12 Z M17.5,14.5 C17.1203042,14.5 16.806509,14.7821539 16.7568466,15.1482294 L16.75,15.25 L16.75,16.75 L15.25,16.75 C14.8357864,16.75 14.5,17.0857864 14.5,17.5 C14.5,17.8796958 14.7821539,18.193491 15.1482294,18.2431534 L15.25,18.25 L16.749,18.25 L16.75,19.75 C16.75,20.1642136 17.0857864,20.5 17.5,20.5 C17.8796958,20.5 18.193491,20.2178461 18.2431534,19.8517706 L18.25,19.75 L18.249,18.25 L19.75,18.25 C20.1642136,18.25 20.5,17.9142136 20.5,17.5 C20.5,17.1203042 20.2178461,16.806509 19.8517706,16.7568466 L19.75,16.75 L18.25,16.75 L18.25,15.25 C18.25,14.8357864 17.9142136,14.5 17.5,14.5 Z M13.1972244,1 C13.6987541,1 14.1671011,1.2506517 14.4452998,1.66794971 L16,4 L19,4 C20.1045695,4 21,4.8954305 21,6 L21.0010455,10.8655993 C20.380678,10.537546 19.7087573,10.2939576 19.0005978,10.1501485 L19,6 L15,6 L13,3 L9,3 L7,6 L3,6 L3,17 L10.016375,17.0004142 C10.0055154,17.1655404 10,17.3321261 10,17.5 C10,18.01391 10.0516879,18.5157476 10.1501485,19.0005978 L3,19 C1.8954305,19 1,18.1045695 1,17 L1,6 C1,4.8954305 1.8954305,4 3,4 L6,4 L7.5547002,1.66794971 C7.83289886,1.2506517 8.30124586,1 8.80277564,1 L13.1972244,1 Z M11,7 C13.0192938,7 14.6891111,8.4962867 14.9611943,10.4406025 C14.2187273,10.7077955 13.5315595,11.0880319 12.919487,11.5607771 C12.9720781,11.3835815 13,11.1950515 13,11 C13,9.8954305 12.1045695,9 11,9 C9.8954305,9 9,9.8954305 9,11 C9,12.1045695 9.8954305,13 11,13 C11.1950515,13 11.3835815,12.9720781 11.561811,12.9200134 C11.0880319,13.5315595 10.7077955,14.2187273 10.4410152,14.9600431 C8.4962867,14.6891111 7,13.0192938 7,11 C7,8.790861 8.790861,7 11,7 Z" id="Icon-Color" fill="#000000" fill-rule="nonzero"></path>
    </g>
</svg>