<?xml version="1.0" encoding="UTF-8"?>
<svg width="24px" height="24px" viewBox="0 0 24 24" version="1.1" xmlns="http://www.w3.org/2000/svg" xmlns:xlink="http://www.w3.org/1999/xlink">
    <!-- Generator: Sketch 57 (83077) - https://sketch.com -->
    <title>Icons / Utility / photo</title>
    <desc>Created with Sketch.</desc>
    <g id="Icons-/-Utility-/-photo" stroke="none" stroke-width="1" fill="none" fill-rule="evenodd">
        <polygon id="Path" points="0 0 24 0 24 24 0 24"></polygon>
        <path d="M14.1972244,3 C14.6987541,3 15.1671011,3.2506517 15.4452998,3.66794971 L17,6 L20,6 C21.1045695,6 22,6.8954305 22,8 L22,19 C22,20.1045695 21.1045695,21 20,21 L4,21 C2.8954305,21 2,20.1045695 2,19 L2,8 C2,6.8954305 2.8954305,6 4,6 L7,6 L8.5547002,3.66794971 C8.83289886,3.2506517 9.30124586,3 9.80277564,3 L14.1972244,3 Z M14,5 L10,5 L8,8 L4,8 L4,19 L20,19 L20,8 L16,8 L14,5 Z M12,9 C14.209139,9 16,10.790861 16,13 C16,15.209139 14.209139,17 12,17 C9.790861,17 8,15.209139 8,13 C8,10.790861 9.790861,9 12,9 Z M12,11 C10.8954305,11 10,11.8954305 10,13 C10,14.1045695 10.8954305,15 12,15 C13.1045695,15 14,14.1045695 14,13 C14,11.8954305 13.1045695,11 12,11 Z" id="Icon-Color" fill="#000000" fill-rule="nonzero"></path>
    </g>
</svg>