<?xml version="1.0" encoding="UTF-8"?>
<svg width="24px" height="24px" viewBox="0 0 24 24" version="1.1" xmlns="http://www.w3.org/2000/svg" xmlns:xlink="http://www.w3.org/1999/xlink">
    <!-- Generator: Sketch 57 (83077) - https://sketch.com -->
    <title>Icons / Navigation / pin-empty</title>
    <desc>Created with Sketch.</desc>
    <g id="Icons-/-Navigation-/-pin-empty" stroke="none" stroke-width="1" fill="none" fill-rule="evenodd">
        <polygon id="Path" points="0 0 24 0 24 24 0 24"></polygon>
        <path d="M14.49125,3 C14.76125,3 15.01925,3.109 15.20825,3.303 L15.20825,3.303 L21.23625,9.332 C21.61925,9.73 21.60625,10.363 21.20825,10.746 C20.80925,11.128 20.17725,11.115 19.79425,10.717 L19.79425,10.717 L19.21625,10.139 L14.31125,16.406 L15.20825,17.303 C15.21825,17.313 15.22725,17.321 15.23625,17.331 C15.61925,17.729 15.60625,18.363 15.20825,18.745 C14.80925,19.128 14.17725,19.115 13.79425,18.717 L13.79425,18.717 L10.49325,15.416 L4.69025,21.221 L4.69025,21.221 L3.29025,21.221 L3.29025,21.221 L3.29025,19.82 L9.09525,14.018 L5.79425,10.717 C5.60025,10.529 5.49125,10.27 5.49125,10 C5.49125,9.448 5.93925,9 6.49125,9 C6.76125,9 7.01925,9.109 7.20825,9.303 L7.20825,9.303 L8.19025,10.285 L14.38925,5.313 L13.79425,4.717 C13.60025,4.529 13.49125,4.27 13.49125,4 C13.49125,3.448 13.93825,3 14.49125,3 Z M15.4861305,6.42265119 L9.46439792,11.5571448 L12.9140252,15.01337 L17.8923283,9.07333156 L15.4861305,6.42265119 Z" id="Icon-Color" fill="#000000" fill-rule="nonzero"></path>
    </g>
</svg>