<?xml version="1.0" encoding="UTF-8"?>
<svg width="24px" height="24px" viewBox="0 0 24 24" version="1.1" xmlns="http://www.w3.org/2000/svg" xmlns:xlink="http://www.w3.org/1999/xlink">
    <!-- Generator: Sketch 57 (83077) - https://sketch.com -->
    <title>Icons / Utility / rating-half</title>
    <desc>Created with Sketch.</desc>
    <g id="Icons-/-Utility-/-rating-half" stroke="none" stroke-width="1" fill="none" fill-rule="evenodd">
        <polygon id="Path" points="0 0 24 0 24 24 0 24"></polygon>
        <path d="M19.65,9.04 L14.81,8.62 L12.92,4.17 C12.58,3.36 11.42,3.36 11.08,4.17 L9.19,8.63 L4.36,9.04 C3.48,9.11 3.12,10.21 3.79,10.79 L7.46,13.97 L6.36,18.69 C6.16,19.55 7.09,20.23 7.85,19.77 L12,17.27 L16.15,19.78 C16.91,20.24 17.84,19.56 17.64,18.7 L16.54,13.97 L20.21,10.79 C20.88,10.21 20.53,9.11 19.65,9.04 L19.65,9.04 Z M12,15.4 L12,6.1 L13.71,10.14 L18.09,10.52 L14.77,13.4 L15.77,17.68 L12,15.4 Z" id="Icon-Color" fill="#000000" fill-rule="nonzero"></path>
    </g>
</svg>