<?xml version="1.0" encoding="UTF-8"?>
<svg width="24px" height="24px" viewBox="0 0 24 24" version="1.1" xmlns="http://www.w3.org/2000/svg" xmlns:xlink="http://www.w3.org/1999/xlink">
    <!-- Generator: Sketch 57 (83077) - https://sketch.com -->
    <title>Icons / Utility / rotate-left</title>
    <desc>Created with Sketch.</desc>
    <g id="Icons-/-Utility-/-rotate-left" stroke="none" stroke-width="1" fill="none" fill-rule="evenodd">
        <polygon id="Path" points="0 0 24 0 24 24 0 24"></polygon>
        <path d="M18.783961,6.25735931 C22.6181995,10.0915978 22.687913,16.2648123 18.9931013,20.1841045 L18.783961,20.3994949 C18.3934367,20.7900192 17.7602718,20.7900192 17.3697475,20.3994949 C16.9792232,20.0089706 16.9792232,19.3758057 17.3697475,18.9852814 L17.5649212,18.7832659 C20.4925275,15.6464203 20.4274696,10.729295 17.3697475,7.67157288 C14.3120254,4.61385076 9.39490009,4.54879284 6.25805444,7.47639912 L6.05512686,7.67142712 L7.00894078,8.62447469 C7.07422614,8.68976005 7.12326551,8.76892144 7.15273025,8.85556574 L7.17554685,8.94446755 C7.2273755,9.23816326 7.05609358,9.51962539 6.78342538,9.61496207 L6.68894791,9.63960889 L2.65749848,10.3510411 C2.58851728,10.3632143 2.51793727,10.3632143 2.44895607,10.3510411 C2.15526037,10.2992125 1.94942601,10.0419371 1.9531773,9.75310675 L1.96235714,9.65589981 L2.67378939,5.62445037 C2.69518293,5.5032203 2.75334831,5.39150465 2.84039546,5.3044575 C3.04867508,5.09617788 3.37198436,5.0730357 3.60582613,5.23503096 L3.6889236,5.3044575 L4.64112686,6.25642712 L4.85721584,6.04821903 C8.77650802,2.35340738 14.9497225,2.42312081 18.783961,6.25735931 Z M10.3489322,10.3284271 C10.7394565,9.93790283 11.3726215,9.93790283 11.7631458,10.3284271 L11.7631458,10.3284271 L15.2986797,13.863961 C15.6892039,14.2544853 15.6892039,14.8876503 15.2986797,15.2781746 L15.2986797,15.2781746 L11.7631458,18.8137085 C11.3726215,19.2042328 10.7394565,19.2042328 10.3489322,18.8137085 L10.3489322,18.8137085 L6.81339828,15.2781746 C6.42287399,14.8876503 6.42287399,14.2544853 6.81339828,13.863961 L6.81339828,13.863961 Z M11.056039,12.4497475 L8.93471863,14.5710678 L11.056039,16.6923882 L13.1773593,14.5710678 L11.056039,12.4497475 Z" id="Icon-Color" fill="#000000" fill-rule="nonzero"></path>
    </g>
</svg>