<?xml version="1.0" encoding="UTF-8"?>
<svg width="24px" height="24px" viewBox="0 0 24 24" version="1.1" xmlns="http://www.w3.org/2000/svg" xmlns:xlink="http://www.w3.org/1999/xlink">
    <!-- Generator: Sketch 57 (83077) - https://sketch.com -->
    <title>Icons / Utility / rotate-right</title>
    <desc>Created with Sketch.</desc>
    <g id="Icons-/-Utility-/-rotate-right" stroke="none" stroke-width="1" fill="none" fill-rule="evenodd">
        <polygon id="Path" points="0 0 24 0 24 24 0 24"></polygon>
        <path d="M19.363961,6.25735931 L20.3168628,5.3044575 C20.5511774,5.07014293 20.9310764,5.07014293 21.165391,5.3044575 C21.2524381,5.39150465 21.3106035,5.5032203 21.331997,5.62445037 L22.0434293,9.65589981 C22.1010167,9.98222837 21.8831589,10.2934537 21.5568304,10.3510411 C21.4878492,10.3632143 21.4172692,10.3632143 21.348288,10.3510411 L17.3168385,9.63960889 C16.99051,9.5820215 16.7726522,9.27079612 16.8302396,8.94446755 C16.8516331,8.82323748 16.9097985,8.71152184 16.9968457,8.62447469 L17.9497475,7.67157288 C14.8255531,4.54737854 9.7602333,4.54737854 6.63603897,7.67157288 C3.57831686,10.729295 3.51325894,15.6464203 6.44086522,18.7832659 L6.63603897,18.9852814 C7.02656326,19.3758057 7.02656326,20.0089706 6.63603897,20.3994949 C6.27555501,20.7599789 5.70832395,20.7877084 5.31603274,20.4826835 L5.22182541,20.3994949 C1.31658249,16.494252 1.31658249,10.1626022 5.22182541,6.25735931 C9.12706832,2.3521164 15.4587181,2.3521164 19.363961,6.25735931 Z M13.6568542,10.3284271 L17.1923882,13.863961 C17.5829124,14.2544853 17.5829124,14.8876503 17.1923882,15.2781746 L13.6568542,18.8137085 C13.26633,19.2042328 12.633165,19.2042328 12.2426407,18.8137085 L8.70710678,15.2781746 C8.31658249,14.8876503 8.31658249,14.2544853 8.70710678,13.863961 L12.2426407,10.3284271 C12.633165,9.93790283 13.26633,9.93790283 13.6568542,10.3284271 Z M12.9497475,12.4497475 L10.8284271,14.5710678 L12.9497475,16.6923882 L15.0710678,14.5710678 L12.9497475,12.4497475 Z" id="Icon-Color" fill="#000000" fill-rule="nonzero"></path>
    </g>
</svg>