<?xml version="1.0" encoding="UTF-8"?>
<svg width="24px" height="24px" viewBox="0 0 24 24" version="1.1" xmlns="http://www.w3.org/2000/svg" xmlns:xlink="http://www.w3.org/1999/xlink">
    <!-- Generator: Sketch 57 (83077) - https://sketch.com -->
    <title>Icons / Utility / save</title>
    <desc>Created with Sketch.</desc>
    <g id="Icons-/-Utility-/-save" stroke="none" stroke-width="1" fill="none" fill-rule="evenodd">
        <polygon id="Path" points="0 0 24 0 24 24 0 24"></polygon>
        <path d="M16.17,3 C16.7,3 17.21,3.21 17.59,3.59 L17.59,3.59 L20.41,6.42 C20.79,6.79 21,7.3 21,7.83 L21,7.83 L21,19 C21,20.1 20.1,21 19,21 L19,21 L5,21 C3.9,21 3,20.1 3,19 L3,19 L3,5 C3,3.9 3.89,3 5,3 L5,3 Z M12,11 C10.3431458,11 9,12.3431458 9,14 C9,15.6568542 10.3431458,17 12,17 C13.6568542,17 15,15.6568542 15,14 C15,12.3431458 13.6568542,11 12,11 Z M11.75,5 L6.25,5 C5.55964406,5 5,5.55964406 5,6.25 C5,6.94035594 5.55964406,7.5 6.25,7.5 L6.25,7.5 L11.75,7.5 C12.4403559,7.5 13,6.94035594 13,6.25 C13,5.55964406 12.4403559,5 11.75,5 L11.75,5 Z" id="Icon-Color" fill="#000000" fill-rule="nonzero"></path>
    </g>
</svg>