<?xml version="1.0" encoding="UTF-8"?>
<svg width="24px" height="24px" viewBox="0 0 24 24" version="1.1" xmlns="http://www.w3.org/2000/svg" xmlns:xlink="http://www.w3.org/1999/xlink">
    <!-- Generator: Sketch 57 (83077) - https://sketch.com -->
    <title>Icons / Utility / scanner</title>
    <desc>Created with Sketch.</desc>
    <g id="Icons-/-Utility-/-scanner" stroke="none" stroke-width="1" fill="none" fill-rule="evenodd">
        <polygon id="Path" points="0 0 24 0 24 24 0 24"></polygon>
        <path d="M15.0230612,3.29289322 C15.4135855,3.68341751 15.4135855,4.31658249 15.0230612,4.70710678 L4.419,15.31 L22,15.3107816 L22,19.3107816 C22,20.4153511 21.1045695,21.3107816 20,21.3107816 L4,21.3107816 C2.8954305,21.3107816 2,20.4153511 2,19.3107816 L2,15.3107816 C2.00301115,15.0557851 2.10064073,14.8011001 2.29513914,14.6066017 L13.6088476,3.29289322 C13.9993719,2.90236893 14.6325369,2.90236893 15.0230612,3.29289322 Z M21,12.3107816 C21.5522847,12.3107816 22,12.7584968 22,13.3107816 C22,13.8630663 21.5522847,14.3107816 21,14.3107816 L10,14.3107816 C9.44771525,14.3107816 9,13.8630663 9,13.3107816 C9,12.7584968 9.44771525,12.3107816 10,12.3107816 L21,12.3107816 Z" id="Icon-Color" fill="#000000" fill-rule="nonzero"></path>
    </g>
</svg>