<?xml version="1.0" encoding="UTF-8"?>
<svg width="24px" height="24px" viewBox="0 0 24 24" version="1.1" xmlns="http://www.w3.org/2000/svg" xmlns:xlink="http://www.w3.org/1999/xlink">
    <!-- Generator: Sketch 57 (83077) - https://sketch.com -->
    <title>Icons / Utility / schedule</title>
    <desc>Created with Sketch.</desc>
    <g id="Icons-/-Utility-/-schedule" stroke="none" stroke-width="1" fill="none" fill-rule="evenodd">
        <polygon id="Path" points="0 0 24 0 24 24 0 24"></polygon>
        <path d="M17.5,12 C20.5375661,12 23,14.4624339 23,17.5 C23,20.5375661 20.5375661,23 17.5,23 C14.4624339,23 12,20.5375661 12,17.5 C12,14.4624339 14.4624339,12 17.5,12 Z M16,1 C16.5107143,1 16.9352041,1.3880102 16.9932398,1.88380102 L17,2 L17,3 L18,3 C19.05,3 19.9177686,3.82004132 19.9944872,4.85130541 L20,5 L20.0007361,10.6739809 C19.3791204,10.3785944 18.7070649,10.1721318 18.0010101,10.0710334 L18,8 L4,8 L4,18 C4,18.5107143 4.3880102,18.9352041 4.88380102,18.9932398 L5,19 L10.2901893,19.0010432 C10.50536,19.7236135 10.8340658,20.3972722 11.255617,21.0013298 L4,21 C2.94045455,21 2.08136364,20.1799587 2.00545361,19.1486946 L2,19 L2.01,5 C2.01,3.95 2.81181818,3.0822314 3.85012303,3.00551277 L4,3 L5,3 L5,2 C5,1.45 5.45,1 6,1 C6.51071429,1 6.93520408,1.3880102 6.9932398,1.88380102 L7,2 L7,3 L15,3 L15,2 C15,1.45 15.45,1 16,1 Z M17.5,13.75 C17.1203042,13.75 16.806509,14.0321539 16.7568466,14.3982294 L16.75,14.5 L16.75,18 C16.75,18.3796958 17.0321539,18.693491 17.3982294,18.7431534 L17.5,18.75 L20,18.75 C20.4142136,18.75 20.75,18.4142136 20.75,18 C20.75,17.6203042 20.4678461,17.306509 20.1017706,17.2568466 L20,17.25 L18.249,17.249 L18.25,14.5 C18.25,14.0857864 17.9142136,13.75 17.5,13.75 Z" id="Icon-Color" fill="#000000" fill-rule="nonzero"></path>
    </g>
</svg>