<?xml version="1.0" encoding="UTF-8"?>
<svg width="24px" height="24px" viewBox="0 0 24 24" version="1.1" xmlns="http://www.w3.org/2000/svg" xmlns:xlink="http://www.w3.org/1999/xlink">
    <!-- Generator: Sketch 57 (83077) - https://sketch.com -->
    <title>Icons / Navigation / search</title>
    <desc>Created with Sketch.</desc>
    <g id="Icons-/-Navigation-/-search" stroke="none" stroke-width="1" fill="none" fill-rule="evenodd">
        <polygon id="Path" points="0 0 24 0 24 24 0 24"></polygon>
        <path d="M10,3 C13.8659932,3 17,6.13400675 17,10 C17,11.7530734 16.3555667,13.3556314 15.2906721,14.583702 L15.890039,15.1810736 C16.4473794,14.9154696 17.1347233,15.013403 17.5961941,15.4748737 L21.131728,19.0104076 C21.7175144,19.5961941 21.7175144,20.5459415 21.131728,21.131728 C20.5459415,21.7175144 19.5961941,21.7175144 19.0104076,21.131728 L15.4748737,17.5961941 C15.013403,17.1347233 14.9154696,16.4473794 15.1810736,15.890039 L14.583702,15.2906721 C13.3556314,16.3555667 11.7530734,17 10,17 C6.13400675,17 3,13.8659932 3,10 C3,6.13400675 6.13400675,3 10,3 Z M10,5 C7.23857625,5 5,7.23857625 5,10 C5,12.7614237 7.23857625,15 10,15 C12.7614237,15 15,12.7614237 15,10 C15,7.23857625 12.7614237,5 10,5 Z" id="Icon-Color" fill="#000000" fill-rule="nonzero"></path>
    </g>
</svg>