<?xml version="1.0" encoding="UTF-8"?>
<svg width="24px" height="24px" viewBox="0 0 24 24" version="1.1" xmlns="http://www.w3.org/2000/svg" xmlns:xlink="http://www.w3.org/1999/xlink">
    <!-- Generator: Sketch 58 (84663) - https://sketch.com -->
    <title>Icons / Navigation / search-list</title>
    <desc>Created with Sketch.</desc>
    <g id="Icons-/-Navigation-/-search-list" stroke="none" stroke-width="1" fill="none" fill-rule="evenodd">
        <polygon id="Path" points="0 0 24 0 24 24 0 24"></polygon>
        <path d="M8.49981661,17.0004871 L3.94444444,17 C3.425,17 3,16.55 3,16 C3,15.45 3.425,15 3.94444444,15 L3.94444444,15 L7.42716214,15.0011254 C7.68316843,15.7250643 8.04717351,16.3979718 8.49981661,17.0004871 Z M7,12.5 C7,12.6678739 7.00551545,12.8344596 7.01637502,12.9995858 L3.94444444,13 C3.425,13 3,12.55 3,12 C3,11.45 3.425,11 3.94444444,11 L3.94444444,11 L7.15014855,10.9994022 C7.05168787,11.4842524 7,11.98609 7,12.5 Z M7.86507224,8.99995148 L3.94444444,9 C3.425,9 3,8.55 3,8 C3,7.45 3.425,7 3.94444444,7 L3.94444444,7 L9.40099637,6.99993984 C8.78327303,7.57288824 8.26223262,8.24862449 7.86507224,8.99995148 Z M14.5,7 C17.5375661,7 20,9.46243388 20,12.5 C20,13.7912302 19.5550405,14.9785345 18.8100906,15.9169441 C18.8547989,15.947543 18.8984025,15.984189 18.9393398,16.0251263 L21.767767,18.8535534 C22.1582912,19.2440777 22.1582912,19.8772427 21.767767,20.267767 C21.3772427,20.6582912 20.7440777,20.6582912 20.3535534,20.267767 L17.5251263,17.4393398 C17.4538156,17.3680291 17.3955264,17.2886279 17.3502587,17.2040909 C16.5200452,17.7091247 15.5439914,18 14.5,18 C11.4624339,18 9,15.5375661 9,12.5 C9,9.46243388 11.4624339,7 14.5,7 Z M14.5,9 C12.5670034,9 11,10.5670034 11,12.5 C11,14.4329966 12.5670034,16 14.5,16 C16.4329966,16 18,14.4329966 18,12.5 C18,10.5670034 16.4329966,9 14.5,9 Z M19.0555556,3 C19.575,3 20,3.45 20,4 C20,4.51071429 19.6335459,4.93520408 19.165299,4.9932398 L19.0555556,5 L3.94444444,5 C3.425,5 3,4.55 3,4 C3,3.48928571 3.36645408,3.06479592 3.83470096,3.0067602 L3.94444444,3 L19.0555556,3 Z" id="Icon-Color" fill="#000000" fill-rule="nonzero"></path>
    </g>
</svg>