<?xml version="1.0" encoding="UTF-8"?>
<svg width="24px" height="24px" viewBox="0 0 24 24" version="1.1" xmlns="http://www.w3.org/2000/svg" xmlns:xlink="http://www.w3.org/1999/xlink">
    <!-- Generator: Sketch 57 (83077) - https://sketch.com -->
    <title>Icons / Utility / shortcuts</title>
    <desc>Created with Sketch.</desc>
    <g id="Icons-/-Utility-/-shortcuts" stroke="none" stroke-width="1" fill="none" fill-rule="evenodd">
        <polygon id="Path" points="0 0 24 0 24 24 0 24"></polygon>
        <path d="M2,7 L7,7 L7,2 L2,2 L2,7 Z M9.5,22 L14.5,22 L14.5,17 L9.5,17 L9.5,22 Z M2,22 L7,22 L7,17 L2,17 L2,22 Z M2,14.5 L7,14.5 L7,9.5 L2,9.5 L2,14.5 Z M9.5,14.5 L14.5,14.5 L14.5,9.5 L9.5,9.5 L9.5,14.5 Z M17,2 L17,7 L22,7 L22,2 L17,2 Z M9.5,7 L14.5,7 L14.5,2 L9.5,2 L9.5,7 Z M17,14.5 L22,14.5 L22,9.5 L17,9.5 L17,14.5 Z M17,22 L22,22 L22,17 L17,17 L17,22 Z" id="Icon-Color" fill="#000000" fill-rule="nonzero"></path>
    </g>
</svg>