<?xml version="1.0" encoding="UTF-8"?>
<svg width="24px" height="24px" viewBox="0 0 24 24" version="1.1" xmlns="http://www.w3.org/2000/svg" xmlns:xlink="http://www.w3.org/1999/xlink">
    <!-- Generator: Sketch 57 (83077) - https://sketch.com -->
    <title>Icons / Navigation / sign-out</title>
    <desc>Created with Sketch.</desc>
    <g id="Icons-/-Navigation-/-sign-out" stroke="none" stroke-width="1" fill="none" fill-rule="evenodd">
        <polygon id="Path" points="0 0 24 0 24 24 0 24"></polygon>
        <path d="M19,2 C20.1045695,2 21,2.8954305 21,4 L21,20 C21,21.1045695 20.1045695,22 19,22 L12,22 C11.4477153,22 11,21.5522847 11,21 C11,20.4477153 11.4477153,20 12,20 L19,20 L19,4 L12,4 C11.4477153,4 11,3.55228475 11,3 C11,2.44771525 11.4477153,2 12,2 L19,2 Z M6.12132034,8.46446609 C6.51184464,8.0739418 7.14500961,8.0739418 7.53553391,8.46446609 C7.9260582,8.85499039 7.9260582,9.48815536 7.53553391,9.87867966 L7.53553391,9.87867966 L6.415,10.9995729 L14,11 C14.5522847,11 15,11.4477153 15,12 C15,12.5522847 14.5522847,13 14,13 L14,13 L6.366,12.9995729 L7.53553391,14.1696602 C7.9260582,14.5601845 7.9260582,15.1933495 7.53553391,15.5838737 C7.14500961,15.974398 6.51184464,15.974398 6.12132034,15.5838737 L6.12132034,15.5838737 L3.29289322,12.7554466 C3.09635818,12.5589116 2.99873125,12.3009229 3.00001245,12.0433349 L3.00001245,12.0433349 L3.00054218,11.9669718 C3.00111175,11.9496288 3.00213007,11.9322977 3.00356892,11.9149143 C3.00535902,11.8936689 3.00781333,11.8726125 3.01090541,11.8522878 L3.01090541,11.8522878 L3.0207262,11.7964731 L3.03421911,11.739995 C3.03927656,11.7211392 3.04489462,11.7024024 3.0511777,11.6833314 C3.05681015,11.6664473 3.06288066,11.6497636 3.06925531,11.6336374 C3.07680529,11.6144279 3.08497258,11.5954049 3.09372989,11.5767381 C3.10399512,11.5547964 3.11503374,11.5332887 3.1267352,11.5122285 C3.13271731,11.5015317 3.1389112,11.4909214 3.14537046,11.4804822 C3.16044452,11.4557377 3.176563,11.4316994 3.19357969,11.4084208 L3.19357969,11.4084208 L3.221,11.3735729 L3.222,11.3725729 L3.29289322,11.2928932 Z" id="Icon-Color" fill="#000000" fill-rule="nonzero"></path>
    </g>
</svg>