<?xml version="1.0" encoding="UTF-8"?>
<svg width="24px" height="24px" viewBox="0 0 24 24" version="1.1" xmlns="http://www.w3.org/2000/svg" xmlns:xlink="http://www.w3.org/1999/xlink">
    <!-- Generator: Sketch 57 (83077) - https://sketch.com -->
    <title>Icons / Navigation / sign-in</title>
    <desc>Created with Sketch.</desc>
    <g id="Icons-/-Navigation-/-sign-in" stroke="none" stroke-width="1" fill="none" fill-rule="evenodd">
        <polygon id="Path" points="0 0 24 0 24 24 0 24"></polygon>
        <path d="M19,2 C20.1045695,2 21,2.8954305 21,4 L21,20 C21,21.1045695 20.1045695,22 19,22 L12,22 C11.4477153,22 11,21.5522847 11,21 C11,20.4477153 11.4477153,20 12,20 L19,20 L19,4 L12,4 C11.4477153,4 11,3.55228475 11,3 C11,2.44771525 11.4477153,2 12,2 L19,2 Z M11.8786797,8.46446609 L14.7071068,11.2928932 L14.778,11.3725729 L14.779,11.3735729 L14.8064203,11.4084208 C14.823437,11.4316994 14.8395555,11.4557377 14.8546295,11.4804822 C14.8610888,11.4909214 14.8672827,11.5015317 14.8732648,11.5122285 C14.8849663,11.5332887 14.8960049,11.5547964 14.9062701,11.5767381 C14.9150274,11.5954049 14.9231947,11.6144279 14.9307447,11.6336374 C14.9371193,11.6497636 14.9431898,11.6664473 14.9488223,11.6833314 C14.9551054,11.7024024 14.9607234,11.7211392 14.9657809,11.739995 L14.9792738,11.7964731 L14.9890946,11.8522878 L14.9890946,11.8522878 C14.9921867,11.8726125 14.994641,11.8936689 14.9964311,11.9149143 C14.9978699,11.9322977 14.9988882,11.9496288 14.9994578,11.9669718 C14.9998183,11.9777892 15,11.9888734 15,12 L14.9999876,12.0433349 C15.0012687,12.3009229 14.9036418,12.5589116 14.7071068,12.7554466 L11.8786797,15.5838737 C11.4881554,15.974398 10.8549904,15.974398 10.4644661,15.5838737 C10.0739418,15.1933495 10.0739418,14.5601845 10.4644661,14.1696602 L11.634,12.9995729 L4,13 C3.44771525,13 3,12.5522847 3,12 C3,11.4477153 3.44771525,11 4,11 L11.585,10.9995729 L10.4644661,9.87867966 C10.0739418,9.48815536 10.0739418,8.85499039 10.4644661,8.46446609 C10.8549904,8.0739418 11.4881554,8.0739418 11.8786797,8.46446609 Z" id="Icon-Color" fill="#000000" fill-rule="nonzero"></path>
    </g>
</svg>