<?xml version="1.0" encoding="UTF-8"?>
<svg width="24px" height="24px" viewBox="0 0 24 24" version="1.1" xmlns="http://www.w3.org/2000/svg" xmlns:xlink="http://www.w3.org/1999/xlink">
    <!-- Generator: Sketch 57 (83077) - https://sketch.com -->
    <title>Icons / Utility / sort-alpha</title>
    <desc>Created with Sketch.</desc>
    <g id="Icons-/-Utility-/-sort-alpha" stroke="none" stroke-width="1" fill="none" fill-rule="evenodd">
        <polygon id="Path" points="0 0 24 0 24 24 0 24"></polygon>
        <path d="M11.5551027,19.5 L14.4407001,19.5 C14.9055013,19.5 15.154875,20.0167222 14.8950564,20.363895 L14.8362164,20.4308655 L13.3934177,21.840773 C13.2003017,22.0294865 12.9015498,22.0504546 12.6849592,21.9036775 L12.6079558,21.840773 L11.1651571,20.4308655 C10.8361405,20.1093495 11.0310045,19.5725325 11.4651644,19.5066863 L11.5551027,19.5 L14.4407001,19.5 Z M14.4071147,7.0087184 L19.9620536,7.0087184 C20.6117541,7.0087184 21.0152523,7.72077707 20.7206374,8.28498782 L20.6649934,8.37750654 L15.7615597,15.6050567 L20.3306684,15.6050567 C20.7078556,15.6050567 21.0164633,15.9189189 20.9993185,16.3112467 C20.9993185,16.6520567 20.7513554,16.9424298 20.4228849,16.9924082 L20.322096,17 L14.5614185,17 C13.9117181,17 13.5082199,16.2879413 13.8028347,15.7237306 L13.8584787,15.6312119 L18.7704849,8.41238012 L14.4071147,8.41238012 C14.0720103,8.41238012 13.7864986,8.15298983 13.7373568,7.81761653 L13.7298922,7.71490846 C13.7298922,7.35527463 13.9820051,7.06157367 14.3145542,7.01512097 L14.4071147,7.0087184 L19.9620536,7.0087184 Z M8.21781537,7 C8.59585983,7 8.94612959,7.21185702 9.12489061,7.54659111 L9.17792828,7.66259808 L12.3754472,15.9799477 C12.5640408,16.4681779 12.2125709,16.9912816 11.6982247,16.9912816 C11.4315266,16.9912816 11.1851485,16.8397322 11.0554213,16.5978655 L11.0124297,16.5030514 L10.4037867,14.8465562 L6.02327158,14.8465562 L5.41462857,16.5030514 C5.30318689,16.7907585 5.02886892,16.9825632 4.72883364,16.9825632 C4.24877718,16.9825632 3.91060408,16.5268817 4.0209815,16.069175 L4.05161114,15.9712293 L7.25770246,7.66259808 C7.41200632,7.26155187 7.79776597,7 8.21781537,7 Z M8.20924293,8.90932868 L6.54619021,13.4254577 L9.87229565,13.4254577 L8.20924293,8.90932868 Z M13.3934177,2.159227 L14.8362164,3.56913446 C15.1871674,3.91208492 14.9364881,4.5 14.4407001,4.5 L11.5551027,4.5 C11.0593147,4.5 10.8142061,3.91208492 11.1651571,3.56913446 L12.6079558,2.159227 C12.8252112,1.94692433 13.1761623,1.94692433 13.3934177,2.159227 Z" id="Icon-Color" fill="#000000" fill-rule="nonzero"></path>
    </g>
</svg>