<?xml version="1.0" encoding="UTF-8"?>
<svg width="24px" height="24px" viewBox="0 0 24 24" version="1.1" xmlns="http://www.w3.org/2000/svg" xmlns:xlink="http://www.w3.org/1999/xlink">
    <!-- Generator: Sketch 57 (83077) - https://sketch.com -->
    <title>Icons / Utility / status-not-started</title>
    <desc>Created with Sketch.</desc>
    <g id="Icons-/-Utility-/-status-not-started" stroke="none" stroke-width="1" fill="none" fill-rule="evenodd">
        <polygon id="Path" points="0 0 24 0 24 24 0 24"></polygon>
        <path d="M9.79425697,2.00020299 C9.71854227,1.99920299 9.63958517,2.00589049 9.56183517,2.02364049 C8.43883527,2.27764049 7.38964777,2.72446859 6.44464777,3.32246859 C5.90764777,3.66246859 5.83744457,4.42229669 6.28644457,4.87129669 L6.28839777,4.87324979 C6.61039777,5.19524979 7.11533527,5.27154669 7.49933517,5.02754669 C8.26633517,4.53954669 9.12149147,4.17881229 10.034491,3.97481239 C10.477491,3.87581229 10.776679,3.46101549 10.776679,3.00801549 C10.776679,2.44976549 10.324261,2.00720299 9.79425697,2.00020299 Z M13.982422,2.00020299 C14.0581367,1.99920299 14.1370938,2.00589049 14.2148438,2.02364049 C15.3378437,2.27764049 16.3870312,2.72446859 17.3320312,3.32246859 C17.8690312,3.66246859 17.9392344,4.42229669 17.4902344,4.87129669 L17.4882812,4.87324979 C17.1662812,5.19524979 16.6613437,5.27154669 16.2773438,5.02754669 C15.5103438,4.53954669 14.6551875,4.17881229 13.742188,3.97481239 C13.299188,3.87581229 13,3.46101549 13,3.00801549 C13,2.44976549 13.452418,2.00720299 13.982422,2.00020299 Z M4.05597587,5.99434359 C3.76710087,6.02259359 3.49355397,6.17506239 3.32355397,6.44356239 C2.72555397,7.38856239 2.27972587,8.43774989 2.02472587,9.56074979 C1.88372587,10.1827496 2.37110087,10.7755936 3.00910087,10.7755936 C3.46210087,10.7755936 3.87689767,10.4754066 3.97589777,10.0334056 C4.17889777,9.11940609 4.54063207,8.26524979 5.02863207,7.49824979 C5.27263207,7.11424979 5.19633517,6.60931229 4.87433517,6.28731239 L4.87238207,6.28535919 C4.64788207,6.06085919 4.34485087,5.96609359 4.05597587,5.99434359 Z M20.1167628,5.99434359 C20.4056378,6.02259359 20.6791847,6.17506239 20.8491847,6.44356239 C21.4471847,7.38856239 21.8930128,8.43774989 22.1480128,9.56074979 C22.2890128,10.1827496 21.8016378,10.7755936 21.1636378,10.7755936 C20.7106378,10.7755936 20.295841,10.4754066 20.1968409,10.0334056 C19.9938409,9.11940609 19.6321066,8.26524979 19.1441066,7.49824979 C18.9001066,7.11424979 18.9764035,6.60931229 19.2984035,6.28731239 L19.3003566,6.28535919 C19.5248566,6.06085919 19.8278878,5.96609359 20.1167628,5.99434359 Z M3.00910087,12.7755936 C2.37110087,12.7755936 1.88272587,13.3684376 2.02472587,13.9904376 C2.27972587,15.1134376 2.72455397,16.1626246 3.32355397,17.1076246 C3.66255397,17.6446246 4.42338207,17.7148276 4.87238207,17.2658276 C5.19538207,16.9428276 5.27263207,16.4369376 5.02863207,16.0529376 C4.54063207,15.2859376 4.17989767,14.4307806 3.97589777,13.5177816 C3.87689767,13.0747816 3.46210087,12.7755936 3.00910087,12.7755936 Z M21.1629654,12.7755936 C21.8009654,12.7755936 22.2893404,13.3684376 22.1473404,13.9904376 C21.8923404,15.1134376 21.4475123,16.1626246 20.8485123,17.1076246 C20.5095123,17.6446246 19.7486842,17.7148276 19.2996842,17.2658276 C18.9766842,16.9428276 18.8994342,16.4369376 19.1434342,16.0529376 C19.6314342,15.2859376 19.9921686,14.4307806 20.1961685,13.5177816 C20.2951686,13.0747816 20.7099654,12.7755936 21.1629654,12.7755936 Z M6.87238207,18.3888746 C6.65763207,18.4176246 6.44939767,18.5169376 6.28839777,18.6779376 L6.28644457,18.6798906 C5.83744457,19.1288906 5.90764777,19.8887186 6.44464777,20.2287186 C7.38964777,20.8267186 8.43883527,21.2725466 9.56183517,21.5275466 C10.183835,21.6685466 10.776679,21.1811716 10.776679,20.5431716 C10.776679,20.0901716 10.476492,19.6753746 10.034491,19.5763746 C9.12149147,19.3723746 8.26728837,19.0116406 7.50128837,18.5236406 C7.30928837,18.4016406 7.08713207,18.3601246 6.87238207,18.3888746 Z M16.9042969,18.3888746 C17.1190469,18.4176246 17.3272813,18.5169376 17.4882812,18.6779376 L17.4902344,18.6798906 C17.9392344,19.1288906 17.8690312,19.8887186 17.3320312,20.2287186 C16.3870312,20.8267186 15.3378437,21.2725466 14.2148438,21.5275466 C13.592844,21.6685466 13,21.1811716 13,20.5431716 C13,20.0901716 13.300187,19.6753746 13.742188,19.5763746 C14.6551875,19.3723746 15.5093906,19.0116406 16.2753906,18.5236406 C16.4673906,18.4016406 16.6895469,18.3601246 16.9042969,18.3888746 Z" id="Shape" fill="#000000" fill-rule="nonzero"></path>
    </g>
</svg>