<?xml version="1.0" encoding="UTF-8"?>
<svg width="24px" height="24px" viewBox="0 0 24 24" version="1.1" xmlns="http://www.w3.org/2000/svg" xmlns:xlink="http://www.w3.org/1999/xlink">
    <!-- Generator: Sketch 57 (83077) - https://sketch.com -->
    <title>Icons / Utility / status-in-progress</title>
    <desc>Created with Sketch.</desc>
    <g id="Icons-/-Utility-/-status-in-progress" stroke="none" stroke-width="1" fill="none" fill-rule="evenodd">
        <polygon id="Path" points="0 0 24 0 24 24 0 24"></polygon>
        <path d="M9.79425697,2.00020299 C9.71854227,1.99920299 9.63958517,2.00589049 9.56183517,2.02364049 C8.43883527,2.27764049 7.38964777,2.72446859 6.44464777,3.32246859 C5.90764777,3.66246859 5.83744457,4.42229669 6.28644457,4.87129669 L6.28839777,4.87324979 C6.61039777,5.19524979 7.11533527,5.27154669 7.49933517,5.02754669 C8.26633517,4.53954669 9.12149147,4.17881229 10.034491,3.97481239 C10.477491,3.87581229 10.776679,3.46101549 10.776679,3.00801549 C10.776679,2.44976549 10.324261,2.00720299 9.79425697,2.00020299 Z M13.761054,2.00009135 C13.230859,2.00787289 12.776679,2.44976549 12.776679,3.00801549 C12.776679,3.46796859 13.085538,3.87576549 13.532538,3.97676549 C17.101538,4.77876549 19.776679,7.96859359 19.776679,11.7755936 C19.776679,15.5825936 17.101538,18.7724216 13.532538,19.5744216 C13.085538,19.6754216 12.776679,20.0832186 12.776679,20.5412186 C12.776679,21.1811716 13.369523,21.6695466 13.991523,21.5275466 C18.442523,20.5175466 21.776679,16.5285936 21.776679,11.7755936 C21.776679,7.02259359 18.442523,3.03464049 13.991523,2.02364049 C13.913773,2.00601549 13.836796,1.99910729 13.761054,2.00009135 Z M4.05597587,5.99434359 C3.76710087,6.02259359 3.49355397,6.17506239 3.32355397,6.44356239 C2.72555397,7.38856239 2.27972587,8.43774989 2.02472587,9.56074979 C1.88372587,10.1827496 2.37110087,10.7755936 3.00910087,10.7755936 C3.46210087,10.7755936 3.87689767,10.4754066 3.97589777,10.0334056 C4.17889777,9.11940609 4.54063207,8.26524979 5.02863207,7.49824979 C5.27263207,7.11424979 5.19633517,6.60931229 4.87433517,6.28731239 L4.87238207,6.28535919 C4.64788207,6.06085919 4.34485087,5.96609359 4.05597587,5.99434359 Z M15.757148,8.76582799 C15.4973493,8.77356913 15.2507696,8.8821483 15.069648,9.06856239 L10.776679,13.3615316 L9.48371017,12.0685626 C9.23289297,11.8073247 8.86044399,11.7020921 8.51000373,11.7934492 C8.15956347,11.8848064 7.88589196,12.1584778 7.79453469,12.5089181 C7.70317743,12.8593583 7.80840995,13.2318073 8.06964777,13.4826246 L10.069648,15.4826246 C10.4601778,15.8729927 11.0931802,15.8729927 11.48371,15.4826246 L16.48371,10.4826246 C16.7794702,10.1951332 16.8683985,9.75555877 16.7076443,9.37571207 C16.5468902,8.99586538 16.1694313,8.75366968 15.757148,8.76582799 L15.757148,8.76582799 Z M3.00910087,12.7755936 C2.37110087,12.7755936 1.88272587,13.3684376 2.02472587,13.9904376 C2.27972587,15.1134376 2.72455397,16.1626246 3.32355397,17.1076246 C3.66255397,17.6446246 4.42338207,17.7148276 4.87238207,17.2658276 C5.19538207,16.9428276 5.27263207,16.4369376 5.02863207,16.0529376 C4.54063207,15.2859376 4.17989767,14.4307806 3.97589777,13.5177816 C3.87689767,13.0747816 3.46210087,12.7755936 3.00910087,12.7755936 Z M6.87238207,18.3888746 C6.65763207,18.4176246 6.44939767,18.5169376 6.28839777,18.6779376 L6.28644457,18.6798906 C5.83744457,19.1288906 5.90764777,19.8887186 6.44464777,20.2287186 C7.38964777,20.8267186 8.43883527,21.2725466 9.56183517,21.5275466 C10.183835,21.6685466 10.776679,21.1811716 10.776679,20.5431716 C10.776679,20.0901716 10.476492,19.6753746 10.034491,19.5763746 C9.12149147,19.3723746 8.26728837,19.0116406 7.50128837,18.5236406 C7.30928837,18.4016406 7.08713207,18.3601246 6.87238207,18.3888746 Z" id="Shape" fill="#000000" fill-rule="nonzero"></path>
    </g>
</svg>