<?xml version="1.0" encoding="UTF-8"?>
<svg width="24px" height="24px" viewBox="0 0 24 24" version="1.1" xmlns="http://www.w3.org/2000/svg" xmlns:xlink="http://www.w3.org/1999/xlink">
    <!-- Generator: Sketch 57 (83077) - https://sketch.com -->
    <title>Icons / Text Formatting / text-strikethrough</title>
    <desc>Created with Sketch.</desc>
    <g id="Icons-/-Text-Formatting-/-text-strikethrough" stroke="none" stroke-width="1" fill="none" fill-rule="evenodd">
        <polygon id="Path" points="0 0 24 0 24 24 0 24"></polygon>
        <path d="M12,19 C13.1,19 14,18.1 14,17 L14,16 L10,16 L10,17 C10,18.1 10.9,19 12,19 Z M5,5.5 C5,6.33 5.67,7 6.5,7 L10,7 L10,10 L14,10 L14,7 L17.5,7 C18.33,7 19,6.33 19,5.5 C19,4.67 18.33,4 17.5,4 L6.5,4 C5.67,4 5,4.67 5,5.5 Z M4,14 L20,14 C20.55,14 21,13.55 21,13 C21,12.45 20.55,12 20,12 L4,12 C3.45,12 3,12.45 3,13 C3,13.55 3.45,14 4,14 Z" id="Icon-Color" fill="#000000" fill-rule="nonzero"></path>
    </g>
</svg>