<?xml version="1.0" encoding="UTF-8"?>
<svg width="24px" height="24px" viewBox="0 0 24 24" version="1.1" xmlns="http://www.w3.org/2000/svg" xmlns:xlink="http://www.w3.org/1999/xlink">
    <!-- Generator: Sketch 57 (83077) - https://sketch.com -->
    <title>Icons / Utility / upload</title>
    <desc>Created with Sketch.</desc>
    <g id="Icons-/-Utility-/-upload" stroke="none" stroke-width="1" fill="none" fill-rule="evenodd">
        <polygon id="Path" points="0 0 24 0 24 24 0 24"></polygon>
        <path d="M12,4 C15.64,4 18.67,6.59 19.35,10.04 C21.95,10.22 24,12.36 24,15 C24,17.76 21.76,20 19,20 L19,20 L6,20 C2.69,20 0,17.31 0,14 C0,10.91 2.34,8.36 5.35,8.04 C6.6,5.64 9.11,4 12,4 Z M12,6 C9.94,6 8.08,7.14 7.13,8.97 L7.13,8.97 L6.63,9.92 L5.56,10.03 C3.53,10.24 2,11.95 2,14 C2,16.21 3.79,18 6,18 L6,18 L19,18 C20.65,18 22,16.65 22,15 C22,13.45 20.78,12.14 19.22,12.04 L19.22,12.04 L17.69,11.93 L17.39,10.43 C16.88,7.86 14.62,6 12,6 Z M12.2843055,9.29569794 L12.3535534,9.35355339 L15.1464466,12.1464466 C15.2402148,12.2402148 15.2928932,12.3673918 15.2928932,12.5 C15.2928932,12.7454599 15.1160181,12.9496084 14.8827689,12.9919443 L14.7928932,13 L13,12.999 L13,15 C13,15.5128358 12.6139598,15.9355072 12.1166211,15.9932723 L12,16 C11.4871642,16 11.0644928,15.6139598 11.0067277,15.1166211 L11,15 L11,13 L9.20710678,13 C9.10102019,13 8.99840961,12.9662858 8.91359954,12.9047908 L8.85355339,12.8535534 C8.67998704,12.679987 8.66070189,12.4105626 8.79569794,12.2156945 L8.85355339,12.1464466 L11.6464466,9.35355339 C11.820013,9.17998704 12.0894374,9.16070189 12.2843055,9.29569794 Z" id="Icon-Color" fill="#000000" fill-rule="nonzero"></path>
    </g>
</svg>