<?xml version="1.0" encoding="UTF-8"?>
<svg width="24px" height="24px" viewBox="0 0 24 24" version="1.1" xmlns="http://www.w3.org/2000/svg" xmlns:xlink="http://www.w3.org/1999/xlink">
    <!-- Generator: Sketch 57 (83077) - https://sketch.com -->
    <title>Icons / Navigation / view-list</title>
    <desc>Created with Sketch.</desc>
    <g id="Icons-/-Navigation-/-view-list" stroke="none" stroke-width="1" fill="none" fill-rule="evenodd">
        <polygon id="Path" points="0 0 24 0 24 24 0 24"></polygon>
        <path d="M20,17 C20.55,17 21,17.45 21,18 C21,18.5107143 20.6119898,18.9352041 20.116199,18.9932398 L20,19 L4,19 C3.45,19 3,18.55 3,18 C3,17.4892857 3.3880102,17.0647959 3.88380102,17.0067602 L4,17 L20,17 Z M20,13 C20.55,13 21,13.45 21,14 C21,14.5107143 20.6119898,14.9352041 20.116199,14.9932398 L20,15 L4,15 C3.45,15 3,14.55 3,14 C3,13.4892857 3.3880102,13.0647959 3.88380102,13.0067602 L4,13 L20,13 Z M4,9 L20,9 C20.55,9 21,9.45 21,10 C21,10.5107143 20.6119898,10.9352041 20.116199,10.9932398 L20,11 L4,11 C3.45,11 3,10.55 3,10 C3,9.48928571 3.3880102,9.06479592 3.88380102,9.0067602 L4,9 L20,9 Z M20,5 C20.55,5 21,5.45 21,6 C21,6.55 20.55,7 20,7 L20,7 L4,7 C3.45,7 3,6.55 3,6 C3,5.45 3.45,5 4,5 L4,5 Z" id="Icon-Color" fill="#000000" fill-rule="nonzero"></path>
    </g>
</svg>