<?xml version="1.0" encoding="UTF-8"?>
<svg width="24px" height="24px" viewBox="0 0 24 24" version="1.1" xmlns="http://www.w3.org/2000/svg" xmlns:xlink="http://www.w3.org/1999/xlink">
    <!-- Generator: Sketch 57 (83077) - https://sketch.com -->
    <title>Icons / Navigation / view-grid</title>
    <desc>Created with Sketch.</desc>
    <g id="Icons-/-Navigation-/-view-grid" stroke="none" stroke-width="1" fill="none" fill-rule="evenodd">
        <polygon id="Path" points="0 0 24 0 24 24 0 24"></polygon>
        <path d="M10,13 C10.5522847,13 11,13.4477153 11,14 L11,18 C11,18.5522847 10.5522847,19 10,19 L6,19 C5.44771525,19 5,18.5522847 5,18 L5,14 C5,13.4477153 5.44771525,13 6,13 L10,13 Z M18,13 C18.5522847,13 19,13.4477153 19,14 L19,18 C19,18.5522847 18.5522847,19 18,19 L14,19 C13.4477153,19 13,18.5522847 13,18 L13,14 C13,13.4477153 13.4477153,13 14,13 L18,13 Z M10,5 C10.5522847,5 11,5.44771525 11,6 L11,10 C11,10.5522847 10.5522847,11 10,11 L6,11 C5.44771525,11 5,10.5522847 5,10 L5,6 C5,5.44771525 5.44771525,5 6,5 L10,5 Z M18,5 C18.5522847,5 19,5.44771525 19,6 L19,10 C19,10.5522847 18.5522847,11 18,11 L14,11 C13.4477153,11 13,10.5522847 13,10 L13,6 C13,5.44771525 13.4477153,5 14,5 L18,5 Z" id="Icon-Color" fill="#000000" fill-rule="nonzero"></path>
    </g>
</svg>