<?xml version="1.0" encoding="UTF-8"?>
<svg width="24px" height="24px" viewBox="0 0 24 24" version="1.1" xmlns="http://www.w3.org/2000/svg" xmlns:xlink="http://www.w3.org/1999/xlink">
    <!-- Generator: Sketch 57 (83077) - https://sketch.com -->
    <title>Icons / Utility / warning-outline</title>
    <desc>Created with Sketch.</desc>
    <g id="Icons-/-Utility-/-warning-outline" stroke="none" stroke-width="1" fill="none" fill-rule="evenodd">
        <polygon id="Path" points="0 0 24 0 24 24 0 24"></polygon>
        <path d="M12.5812951,3.24794022 C12.9136145,3.43071591 13.1871137,3.70421511 13.3698894,4.03653454 L20.9873469,17.8864574 C21.5196597,18.8542987 21.166594,20.0704139 20.1987526,20.6027267 C19.9034627,20.7651362 19.5719211,20.8502949 19.2349151,20.8502949 L4,20.8502949 C2.8954305,20.8502949 2,19.9548644 2,18.8502949 C2,18.5132889 2.0851587,18.1817473 2.24756818,17.8864574 L9.86502574,4.03653454 C10.3973385,3.06869317 11.6134537,2.71562747 12.5812951,3.24794022 Z M11.6174576,4.85029487 L3.61745756,18.8502949 L19.6174576,18.8502949 L11.6174576,4.85029487 Z M11.6174576,14.8502949 C12.3078135,14.8502949 12.8674576,15.4099389 12.8674576,16.1002949 C12.8674576,16.7906508 12.3078135,17.3502949 11.6174576,17.3502949 C10.9271016,17.3502949 10.3674576,16.7906508 10.3674576,16.1002949 C10.3674576,15.4099389 10.9271016,14.8502949 11.6174576,14.8502949 Z M11.6174576,8.85029487 C12.1302934,8.85029487 12.5529647,9.23633506 12.6107298,9.73367374 L12.6174576,9.85029487 L12.6174576,12.8502949 C12.6174576,13.4025796 12.1697423,13.8502949 11.6174576,13.8502949 C11.1046217,13.8502949 10.6819504,13.4642547 10.6241853,12.966916 L10.6174576,12.8502949 L10.6174576,9.85029487 C10.6174576,9.29801012 11.0651728,8.85029487 11.6174576,8.85029487 Z" id="Icon-Color" fill="#000000" fill-rule="nonzero"></path>
    </g>
</svg>